<?xml version="1.0" encoding="UTF-8"?>
<svg version="1.1" xmlns="http://www.w3.org/2000/svg" width="256" height="256">
<path d="M0 0 C84.48 0 168.96 0 256 0 C256 84.48 256 168.96 256 256 C171.52 256 87.04 256 0 256 C0 171.52 0 87.04 0 0 Z " fill="#010002" transform="translate(0,0)"/>
<path d="M0 0 C13.72605111 8.62453544 22.75187281 23.58152448 26.44921875 39.1875 C27.86086087 46.3958853 29.02805837 53.51063056 29.0625 60.87109375 C28.74793791 69.52710715 28.74793791 69.52710715 31.59375 77.37890625 C33.60204563 79.03431354 33.60204563 79.03431354 35.80859375 80.42578125 C45.04714313 87.06238624 49.55251302 101.45400442 51.36035156 112.17578125 C51.97075085 116.1104854 52.50598995 120.0491841 53 124 C53.10731445 124.72743408 53.21462891 125.45486816 53.32519531 126.2043457 C54.13859439 132.17832478 53.84840498 137.8258484 53.25 143.8125 C53.15348145 144.78517822 53.05696289 145.75785645 52.95751953 146.76000977 C51.31950759 162.23314156 46.99549316 177.69155616 35.0078125 188.48046875 C29.91401126 192.3355051 25.54715287 194.65471529 19 194 C20.7769863 192.15193425 22.52106084 190.35801888 24.578125 188.8203125 C36.92276493 179.42281634 41.78382972 161.72888485 44 147 C45.92875821 126.00127273 42.08796637 106.53469899 28.8125 89.6875 C20.41518235 80.77792768 10.68049876 78.91426306 -1 78 C6.61957884 70.21477814 6.61957884 70.21477814 12.828125 69.8203125 C15.55930728 69.81330947 18.27223197 69.86895065 21 70 C18.31886713 49.55363715 13.91730702 29.76064842 -3.0859375 16.35546875 C-9.03373341 12.14345817 -16.0053343 12.42263247 -23 13 C-31.8444187 15.43983964 -39.0845443 21.90988275 -43.8125 29.625 C-50.66796478 42.43049081 -53.83958493 55.64749788 -55 70 C-55.66 70 -56.32 70 -57 70 C-56.97905273 69.12263184 -56.95810547 68.24526367 -56.93652344 67.34130859 C-56.868074 64.06483317 -56.81806949 60.78912488 -56.78027344 57.51220703 C-56.76024157 56.09802205 -56.73300752 54.68391903 -56.69824219 53.27001953 C-56.64934511 51.22928581 -56.62694877 49.1896531 -56.609375 47.1484375 C-56.58842773 45.92302246 -56.56748047 44.69760742 -56.54589844 43.43505859 C-57.22944137 38.26438705 -59.67230394 35.2255656 -63.4375 31.75 C-69.12163337 27.86815282 -74.2119463 27.18128818 -81 28 C-88.47763933 30.20240876 -92.77384639 35.18995715 -96.59765625 41.734375 C-100.05397026 48.2903318 -102.37888967 54.77610486 -104 62 C-104.33 62 -104.66 62 -105 62 C-105.71653447 48.51853667 -102.68556859 35.62203734 -93.9375 25.0625 C-88.73504717 19.4517534 -83.89050708 17.40233959 -76.24609375 16.7734375 C-68.06235839 16.52848216 -63.15128738 18.51371666 -57 24 C-54 27.51724138 -54 27.51724138 -54 30 C-53.34 30 -52.68 30 -52 30 C-51.90203125 29.13375 -51.8040625 28.2675 -51.703125 27.375 C-49.5592832 17.08455935 -41.66402404 7.39481111 -33.2265625 1.390625 C-22.35147208 -5.40153674 -11.34843668 -6.20847916 0 0 Z " fill="#DDA630" transform="translate(190,39)"/>
<path d="M0 0 C5.36631683 4.60513714 7.62838593 9.64832698 8.40625 16.6640625 C8.62815276 26.03945425 7.63402006 33.07673092 2 41 C-1.80128377 43.53418918 -3.49696032 43.68690436 -8 43 C-11.85129969 39.88394843 -14.7036212 35.79660156 -16 31 C-16 29.68 -16 28.36 -16 27 C-17.82966309 27.01522705 -17.82966309 27.01522705 -19.69628906 27.03076172 C-35.67302878 27.11957969 -51.62781818 26.69492231 -67.59471512 26.19248581 C-69.7814449 26.1240154 -71.96821428 26.05696336 -74.15499878 25.99026489 C-92.45096885 25.43062153 -110.7351444 24.75893318 -129.01568604 23.81018066 C-148.33349005 22.81005386 -167.66124628 22.37500658 -187 22 C-186.67 21.34 -186.34 20.68 -186 20 C-185.36743286 19.97938507 -184.73486572 19.95877014 -184.08312988 19.93753052 C-176.56410561 19.69200965 -169.04519431 19.44317088 -161.52634048 19.19248581 C-159.49651979 19.12488409 -157.46668976 19.05756771 -155.43685913 18.99026489 C-141.83684736 18.53832408 -128.23787873 18.08307557 -114.64453125 17.45703125 C-113.69468353 17.4134549 -112.74483582 17.36987854 -111.76620483 17.32498169 C-110.35826157 17.26031204 -110.35826157 17.26031204 -108.921875 17.19433594 C-77.6266593 15.75761586 -46.32288228 15.36435674 -15 15 C-14.95536621 14.39091797 -14.91073242 13.78183594 -14.86474609 13.15429688 C-14.75767334 11.94870117 -14.75767334 11.94870117 -14.6484375 10.71875 C-14.58317871 9.92404297 -14.51791992 9.12933594 -14.45068359 8.31054688 C-13.69788721 4.45114006 -11.81821366 2.68401301 -9 0 C-5.30114425 -1.23295192 -3.7266779 -1.16915385 0 0 Z " fill="#BA8431" transform="translate(202,170)"/>
<path d="M0 0 C5.10028712 3.09204906 7.56372976 6.15916769 9 12 C9.31546388 14.9223039 9.38116049 17.81206421 9.375 20.75 C9.37338867 21.5455127 9.37177734 22.34102539 9.37011719 23.16064453 C9.21278558 30.7233588 7.49582199 36.38536125 3.1875 42.625 C-0.17338598 44.7375569 -2.11414789 44.73697195 -6 44 C-10.28681829 40.85568226 -11.99593888 37.46258914 -13.07885742 32.34936523 C-13.25309738 31.53580063 -13.42733734 30.72223602 -13.6068573 29.88401794 C-13.73659439 29.26229202 -13.86633148 28.6405661 -14 28 C-17.68489127 27.86315821 -21.36978929 27.72649849 -25.0546875 27.58984375 C-26.84795975 27.52324806 -26.84795975 27.52324806 -28.67745972 27.45530701 C-35.83076659 27.19006531 -42.98416162 26.92751041 -50.13769531 26.66845703 C-57.56840937 26.39928791 -64.99894474 26.12555185 -72.42935562 25.84813881 C-76.71013052 25.68848744 -80.99096026 25.53084727 -85.27197266 25.37768555 C-104.89275238 24.6742925 -124.44628393 23.85046397 -144 22 C-144 21.67 -144 21.34 -144 21 C-126.70703447 19.70669853 -109.45605357 18.82010624 -92.11883545 18.44903564 C-79.5625157 18.17649587 -67.03954182 17.63592489 -54.5 16.9375 C-40.98596996 16.18617644 -27.53937022 15.72337269 -14 16 C-13.87367188 14.91203125 -13.74734375 13.8240625 -13.6171875 12.703125 C-12.91658553 8.49951317 -11.58500065 6.34529496 -9 3 C-8.54625 2.38125 -8.0925 1.7625 -7.625 1.125 C-4.90117251 -0.76072673 -3.23451109 -0.55981923 0 0 Z " fill="#BF9744" transform="translate(158,130)"/>
<path d="M0 0 C5.34198969 4.34813114 7.8757342 9.29420224 9 16 C9.79305878 24.34661864 8.888232 32.891044 3.65625 39.765625 C2.3125 41.125 2.3125 41.125 0 43 C-0.33 43.33 -0.66 43.66 -1 44 C-4.582569 44.07024645 -7.04443233 43.87081665 -9.76171875 41.39453125 C-13.32831384 36.92981052 -14.2722356 33.7065046 -15 28 C-16.08265137 27.95512451 -17.16530273 27.91024902 -18.28076172 27.86401367 C-45.56144923 26.72034883 -72.77575328 25.09046689 -100 23 C-96.57905758 20.71937172 -95.31812778 20.78074993 -91.3125 20.875 C-89.82169922 20.90207031 -89.82169922 20.90207031 -88.30078125 20.9296875 C-87.54152344 20.95289062 -86.78226563 20.97609375 -86 21 C-86 20.34 -86 19.68 -86 19 C-85.06470459 19.01667725 -84.12940918 19.03335449 -83.16577148 19.05053711 C-72.3905374 19.15689556 -61.79230545 18.49793005 -51.0625 17.5625 C-49.42908473 17.425854 -47.79562115 17.28978428 -46.16210938 17.15429688 C-39.41336823 16.58774399 -32.67847714 15.98785322 -25.95117188 15.20178223 C-22.29175554 14.82334033 -18.67413795 14.94168035 -15 15 C-14.9175 13.96875 -14.835 12.9375 -14.75 11.875 C-13.76536231 6.78770527 -11.69210193 3.74850533 -8.125 0.0625 C-4.98329631 -1.50835184 -3.30555781 -1.07936581 0 0 Z " fill="#B07D2E" transform="translate(115,96)"/>
<path d="M0 0 C0.33 0 0.66 0 1 0 C1 2.97 1 5.94 1 9 C-0.05960938 9.13277344 -1.11921875 9.26554687 -2.2109375 9.40234375 C-3.59898279 9.58053875 -4.98700231 9.7589346 -6.375 9.9375 C-7.07367188 10.02451172 -7.77234375 10.11152344 -8.4921875 10.20117188 C-12.36783575 10.66318128 -12.36783575 10.66318128 -16 12 C-14.94039062 12.27714844 -13.88078125 12.55429688 -12.7890625 12.83984375 C-11.40101131 13.205614 -10.01299213 13.57150572 -8.625 13.9375 C-7.92632812 14.11990234 -7.22765625 14.30230469 -6.5078125 14.49023438 C-1.2265625 15.88671875 -1.2265625 15.88671875 1 17 C1 17.66 1 18.32 1 19 C1.53625 19.20625 2.0725 19.4125 2.625 19.625 C5.48216123 21.27914598 7.40513011 23.34545178 9.6328125 25.7578125 C10.93884003 27.22415409 10.93884003 27.22415409 13 27 C15.25826509 24.25689921 15.25826509 24.25689921 14.87890625 21.52734375 C13.80194829 18.43049131 12.55383543 17.4866832 9.9375 15.5625 C6.0597089 12.41049868 6.0597089 12.41049868 5.5 8.5625 C5.665 7.716875 5.83 6.87125 6 6 C6.33 6 6.66 6 7 6 C7.2475 7.2684375 7.2475 7.2684375 7.5 8.5625 C9.02031667 12.04655904 9.8404276 12.90763932 12.6875 15.1875 C26.50753388 26.60404973 29.89610404 44.17421772 32 61 C32.16097168 62.09115112 32.16097168 62.09115112 32.32519531 63.2043457 C33.13859439 69.17832478 32.84840498 74.8258484 32.25 80.8125 C32.15348145 81.78517822 32.05696289 82.75785645 31.95751953 83.76000977 C30.31950759 99.23314156 25.99549316 114.69155616 14.0078125 125.48046875 C8.91401126 129.3355051 4.54715287 131.65471529 -2 131 C-0.2230137 129.15193425 1.52106084 127.35801888 3.578125 125.8203125 C15.92276493 116.42281634 20.78382972 98.72888485 23 84 C24.92875821 63.00127273 21.08796637 43.53469899 7.8125 26.6875 C-0.58481765 17.77792768 -10.31950124 15.91426306 -22 15 C-14.38042116 7.21477814 -14.38042116 7.21477814 -8.171875 6.8203125 C-5.44069272 6.81330947 -2.72776803 6.86895065 0 7 C0 4.69 0 2.38 0 0 Z " fill="#C6942F" transform="translate(211,102)"/>
<path d="M0 0 C11.97862293 10.99069526 15.64686976 28.40011917 17 44 C17.20828742 50.00042383 17.11590813 55.99853465 17 62 C17 62.66 17 63.32 17 64 C18.53453067 65.40017135 18.53453067 65.40017135 20.4375 66.8125 C22.79807175 68.78044115 23.89641532 69.75830241 25.125 72.625 C24.96794112 75.60911867 24.00141 76.8384772 22 79 C18.81293058 77.56438314 16.37830895 75.79733671 13.75 73.5 C13.04359375 72.8915625 12.3371875 72.283125 11.609375 71.65625 C10 70 10 70 10 68 C4.06 66.68 -1.88 65.36 -8 64 C-4.44339673 60.44339673 -3.06398916 60.07206666 1.796875 59.90234375 C2.77140625 59.91394531 3.7459375 59.92554688 4.75 59.9375 C5.73484375 59.94652344 6.7196875 59.95554688 7.734375 59.96484375 C8.85585937 59.98224609 8.85585937 59.98224609 10 60 C9.67 57.69 9.34 55.38 9 53 C8.67 53 8.34 53 8 53 C7.91363281 52.15179688 7.82726562 51.30359375 7.73828125 50.4296875 C5.95775812 35.5647696 1.1863299 20.36167566 -9 9 C-7.35 9 -5.7 9 -4 9 C-4 9.66 -4 10.32 -4 11 C-2.02 11 -0.04 11 2 11 C1.855625 9.741875 1.71125 8.48375 1.5625 7.1875 C1.48128906 6.47980469 1.40007812 5.77210937 1.31640625 5.04296875 C1.02829265 2.80603607 1.02829265 2.80603607 0 0 Z " fill="#C6902E" transform="translate(202,51)"/>
<path d="M0 0 C2.6875 0.375 2.6875 0.375 4.9375 2.6875 C7.56414149 6.72127086 7.82406802 9.65524752 7.8125 14.375 C7.81636719 15.9528125 7.81636719 15.9528125 7.8203125 17.5625 C7.6875 20.375 7.6875 20.375 6.6875 23.375 C7.6775 23.375 8.6675 23.375 9.6875 23.375 C10.0175 17.765 10.3475 12.155 10.6875 6.375 C13.20172248 8.88922248 13.0124752 9.82577128 13.0625 13.3125 C12.91936978 20.57397295 11.2592466 28.17959937 6 33.5 C5.236875 34.11875 4.47375 34.7375 3.6875 35.375 C3.3575 35.705 3.0275 36.035 2.6875 36.375 C-0.895069 36.44524645 -3.35693233 36.24581665 -6.07421875 33.76953125 C-9.89605079 28.98530083 -10.37437147 26.9418997 -11.3125 20.375 C-19.5625 19.715 -27.8125 19.055 -36.3125 18.375 C-36.3125 18.045 -36.3125 17.715 -36.3125 17.375 C-27.4025 17.375 -18.4925 17.375 -9.3125 17.375 C-8.6525 14.075 -7.9925 10.775 -7.3125 7.375 C-3.3580259 0.54454474 -3.3580259 0.54454474 0 0 Z " fill="#C2953C" transform="translate(111.3125,103.625)"/>
<path d="M0 0 C1.11503906 0.67804687 2.23007813 1.35609375 3.37890625 2.0546875 C6.09272098 3.89162468 8.23122556 5.71913595 10.4375 8.125 C10.1075 9.115 9.7775 10.105 9.4375 11.125 C8.509375 10.815625 8.509375 10.815625 7.5625 10.5 C6.86125 10.37625 6.16 10.2525 5.4375 10.125 C4.7775 10.785 4.1175 11.445 3.4375 12.125 C1.44921875 12.171875 1.44921875 12.171875 -0.875 11.875 C-1.63425781 11.78734375 -2.39351562 11.6996875 -3.17578125 11.609375 C-5.5625 11.125 -5.5625 11.125 -8 10.10546875 C-13.5865757 7.96792226 -19.9177007 8.14596644 -25.49609375 10.2109375 C-27.91914323 11.42773739 -30.24612219 12.71763898 -32.5625 14.125 C-33.2225 14.455 -33.8825 14.785 -34.5625 15.125 C-34.5625 13.805 -34.5625 12.485 -34.5625 11.125 C-35.5525 11.455 -36.5425 11.785 -37.5625 12.125 C-38.2225 12.125 -38.8825 12.125 -39.5625 12.125 C-39.8925 12.785 -40.2225 13.445 -40.5625 14.125 C-41.2225 13.795 -41.8825 13.465 -42.5625 13.125 C-38.85861328 5.71722656 -32.70294696 -0.13308472 -24.99609375 -3.125 C-14.37731754 -6.39756024 -9.49561026 -5.83160305 0 0 Z " fill="#F9D268" transform="translate(189.5625,40.875)"/>
<path d="M0 0 C0 0.66 0 1.32 0 2 C-14.17883399 3.16339151 -28.39563141 3.50188583 -42.61124802 3.93628693 C-44.7005848 4.00040153 -46.78988654 4.06556087 -48.87918091 4.13104248 C-73.24968648 4.89403559 -97.62224109 5.51828029 -122 6 C-111.67090649 6.99561848 -101.37742067 7.21725577 -91.00888062 7.38870239 C-68.97429189 7.76154557 -46.99844354 8.71258789 -25 10 C-25 10.33 -25 10.66 -25 11 C-44.18789039 11.34339562 -63.32599575 10.76361171 -82.5 10.0625 C-83.69834473 10.01893372 -84.89668945 9.97536743 -86.13134766 9.93048096 C-97.70937449 9.50577149 -109.28413105 9.04878442 -120.85546875 8.46875 C-131.50388014 7.93876954 -142.15409082 7.67264725 -152.8125 7.4375 C-154.69206271 7.39411423 -156.57162005 7.3504952 -158.45117188 7.30664062 C-162.96739101 7.20175766 -167.4836694 7.09996291 -172 7 C-171.67 6.34 -171.34 5.68 -171 5 C-170.36743286 4.97938507 -169.73486572 4.95877014 -169.08312988 4.93753052 C-161.56302864 4.69197448 -154.04303162 4.44335139 -146.52310562 4.19248581 C-145.17526544 4.14752519 -143.82742354 4.10261596 -142.47957993 4.05775833 C-125.04953566 3.47727414 -107.62446982 2.83739842 -90.20166016 2.06530762 C-72.8037445 1.29567699 -55.41156995 0.72898084 -38 0.375 C-36.99997955 0.3544455 -35.99995911 0.33389099 -34.96963501 0.31271362 C-23.31170317 0.0786429 -11.66036657 -0.05638071 0 0 Z " fill="#764F2A" transform="translate(187,185)"/>
<path d="M0 0 C0.495 4.95 0.495 4.95 1 10 C0.34 10.33 -0.32 10.66 -1 11 C-1.495 10.01 -1.495 10.01 -2 9 C-4.67706127 8.50699061 -7.24318162 8.18632969 -9.94921875 7.9453125 C-10.85169846 7.86266144 -11.75417816 7.78001038 -12.68400574 7.69485474 C-29.07018604 6.36023372 -45.56074782 6.28231077 -61.99047852 5.93554688 C-66.73792035 5.83368983 -71.48515815 5.72307561 -76.23242188 5.61328125 C-85.48810554 5.40046603 -94.74396906 5.1970915 -104 5 C-101.63115305 2.63115305 -101.07477348 2.72488042 -97.84619141 2.60522461 C-96.98023346 2.56853165 -96.11427551 2.53183868 -95.22207642 2.49403381 C-94.27480682 2.46377609 -93.32753723 2.43351837 -92.3515625 2.40234375 C-91.36376801 2.36342514 -90.37597351 2.32450653 -89.35824585 2.28440857 C-86.11410998 2.1592353 -82.86966402 2.04806499 -79.625 1.9375 C-77.39060226 1.85494253 -75.15622723 1.77176838 -72.921875 1.68798828 C-66.2817484 1.4430582 -59.64105165 1.21824262 -53 1 C-52.05362671 0.96863953 -51.10725342 0.93727905 -50.13220215 0.90496826 C-44.42178612 0.71687288 -38.71113355 0.53985763 -33 0.375 C-32.29820618 0.3544455 -31.59641235 0.33389099 -30.87335205 0.31271362 C-20.57973346 0.01797048 -10.29657767 -0.0430086 0 0 Z " fill="#E0AA31" transform="translate(189,187)"/>
<path d="M0 0 C0.33 0 0.66 0 1 0 C1.495 6.93 1.495 6.93 2 14 C5.9714169 13.37158027 5.9714169 13.37158027 8 11 C7.2766883 27.86064504 3.94942914 44.03100404 -8 56.6875 C-12.64454295 60.86758865 -17.19340073 63.79952862 -23.5 64.25 C-24.325 64.1675 -25.15 64.085 -26 64 C-24.2230137 62.15193425 -22.47893916 60.35801888 -20.421875 58.8203125 C-8.87416615 50.02948909 -3.82960532 33.66092383 -1.3359375 19.828125 C-0.55422742 13.24721691 -0.29173097 6.61768673 0 0 Z " fill="#B88730" transform="translate(235,169)"/>
<path d="M0 0 C4.93872549 4.77941176 4.93872549 4.77941176 5.09765625 7.9453125 C5.06510417 9.96354167 5.03255208 11.98177083 5 14 C1.37517946 15.20827351 -2.09206743 15.36478717 -5.875 15.5625 C-7.04168213 15.62618774 -7.04168213 15.62618774 -8.23193359 15.69116211 C-17.8177113 16.16183308 -27.40585702 16.08515512 -37 16 C-37.05424426 14.56422212 -37.0929039 13.12784992 -37.125 11.69140625 C-37.14820312 10.89162354 -37.17140625 10.09184082 -37.1953125 9.26782227 C-36.90972809 5.95183026 -35.33311573 4.26020586 -33 2 C-28.125 2.875 -28.125 2.875 -27 4 C-26.76038787 8.23314767 -26.67511353 11.36736489 -29 15 C-27.35 15 -25.7 15 -24 15 C-24.061875 13.783125 -24.12375 12.56625 -24.1875 11.3125 C-24.18059484 7.41799189 -23.58853605 5.05077463 -21 2 C-18.8125 1.1875 -18.8125 1.1875 -17 1 C-16.484375 1.804375 -15.96875 2.60875 -15.4375 3.4375 C-13.14473127 6.25343798 -13.14473127 6.25343798 -9.5625 7.125 C-5.84838455 7.35080351 -5.84838455 7.35080351 -3.125 4.6875 C-1.02421957 2.21840101 -1.02421957 2.21840101 0 0 Z " fill="#18140E" transform="translate(120,132)"/>
<path d="M0 0 C0 0.33 0 0.66 0 1 C-0.845625 1.17015625 -1.69125 1.3403125 -2.5625 1.515625 C-13.8572859 3.92860199 -21.54311387 6.83754949 -29 16 C-29 16.66 -29 17.32 -29 18 C-28.01 17.34 -27.02 16.68 -26 16 C-25.01 16.33 -24.02 16.66 -23 17 C-22.67 17.99 -22.34 18.98 -22 20 C-21.45730469 19.65066406 -20.91460937 19.30132812 -20.35546875 18.94140625 C-19.64003906 18.48636719 -18.92460937 18.03132813 -18.1875 17.5625 C-17.47980469 17.11003906 -16.77210938 16.65757813 -16.04296875 16.19140625 C-10.30224304 12.84356429 -2.6989667 13.04899511 3.61328125 14.671875 C5.1127577 15.20614224 6.60686057 15.75586065 8.09375 16.32421875 C10.50320714 17.17839106 12.4719572 17.38303679 15 17 C15.66 16.34 16.32 15.68 17 15 C19.125 15.375 19.125 15.375 21 16 C19.51889439 12.23517848 17.51225319 10.66563295 14.1875 8.4375 C13.33542969 7.85871094 12.48335937 7.27992187 11.60546875 6.68359375 C9.10117926 5.0653797 6.56706701 3.51627477 4 2 C4.66 1.67 5.32 1.34 6 1 C13.1985525 3.78506365 21.73115086 9.48363887 25.24609375 16.48046875 C26.3374292 20.1276779 26.12857389 23.20707036 26 27 C23 28 23 28 20 27 C20 26.34 20 25.68 20 25 C19.154375 25.12375 18.30875 25.2475 17.4375 25.375 C13.11127214 24.90304787 11.8008426 23.32143657 8.69921875 20.46875 C3.8933204 16.31468614 -2.07659966 16.61720761 -8.1171875 16.765625 C-16.14240103 17.41808138 -20.74082612 22.0310317 -26.64453125 27.13671875 C-29 29 -29 29 -31 29 C-31 29.66 -31 30.32 -31 31 C-32.65 31.33 -34.3 31.66 -36 32 C-35.36141718 22.28913715 -32.6187867 15.02931578 -25.25 8.43359375 C-17.49441323 2.19472455 -9.94057978 -0.64132773 0 0 Z " fill="#EFBB37" transform="translate(178,35)"/>
<path d="M0 0 C0.33 1.32 0.66 2.64 1 4 C1.99 3.67 2.98 3.34 4 3 C5.55643549 2.98446183 7.11400687 3.03201313 8.66796875 3.12109375 C10.00698242 3.19360352 10.00698242 3.19360352 11.37304688 3.26757812 C12.76620117 3.35168945 12.76620117 3.35168945 14.1875 3.4375 C15.59805664 3.51581055 15.59805664 3.51581055 17.03710938 3.59570312 C19.35841501 3.72531918 21.67928409 3.86028181 24 4 C24.44472656 5.39605469 24.44472656 5.39605469 24.8984375 6.8203125 C25.95365536 9.86622505 27.25510156 12.30333878 29 15 C32.37462715 14.45276317 34.08235 13.9451 37 12 C38.21284876 8.94570927 38.21284876 8.94570927 39 6 C39.99 6 40.98 6 42 6 C42.55131189 12.61574272 41.75992183 17.44185468 38 23 C35.78304184 25.6167375 35.23122662 25.95637234 31.6875 26.625 C27.13802289 25.85390218 25.94959863 24.40751914 23.1640625 20.921875 C20.63915705 16.75323915 20.90770148 12.79952312 21 8 C20.4016333 8.00523682 19.8032666 8.01047363 19.18676758 8.01586914 C-9.9910858 8.2372319 -9.9910858 8.2372319 -18 6 C-17.67 5.01 -17.34 4.02 -17 3 C-17 3.66 -17 4.32 -17 5 C-16.34 5 -15.68 5 -15 5 C-15 4.34 -15 3.68 -15 3 C-11.7 2.34 -8.4 1.68 -5 1 C-5 1.99 -5 2.98 -5 4 C-3.35 4 -1.7 4 0 4 C0 2.68 0 1.36 0 0 Z " fill="#BFA360" transform="translate(124,148)"/>
<path d="M0 0 C1.98 0 3.96 0 6 0 C6.9615251 3.21184281 7.0858921 6.05026474 7.03515625 9.39453125 C7.04095703 10.43287109 7.04675781 11.47121094 7.05273438 12.54101562 C7.05921008 14.71037683 7.03866329 16.87999788 6.99023438 19.04882812 C6.98112533 25.06236538 6.98112533 25.06236538 9.80810547 30.14599609 C11.94134858 31.96597233 11.94134858 31.96597233 14.18530273 33.40893555 C16 35 16 35 16.84008789 37.54614258 C17 40 17 40 15.5625 42.3125 C15.046875 42.869375 14.53125 43.42625 14 44 C10.81293058 42.56438314 8.37830895 40.79733671 5.75 38.5 C5.04359375 37.8915625 4.3371875 37.283125 3.609375 36.65625 C2 35 2 35 2 33 C-6.91 31.02 -6.91 31.02 -16 29 C-12.44339673 25.44339673 -11.06398916 25.07206666 -6.203125 24.90234375 C-5.22859375 24.91394531 -4.2540625 24.92554687 -3.25 24.9375 C-2.26515625 24.94652344 -1.2803125 24.95554687 -0.265625 24.96484375 C0.85585937 24.98224609 0.85585937 24.98224609 2 25 C1.855625 23.78183594 1.71125 22.56367187 1.5625 21.30859375 C1.37479204 19.68491986 1.1873037 18.06122057 1 16.4375 C0.90460938 15.63763672 0.80921875 14.83777344 0.7109375 14.01367188 C0.17285824 9.30547833 -0.10176703 4.73852735 0 0 Z " fill="#B47E2E" transform="translate(210,86)"/>
<path d="M0 0 C1.6415049 3.2830098 0.51888624 6.42545033 0 10 C1.32 10 2.64 10 4 10 C4 9.34 4 8.68 4 8 C4.66 8.33 5.32 8.66 6 9 C5.62488281 9.55945313 5.24976563 10.11890625 4.86328125 10.6953125 C-3.44176387 23.70724717 -6.77141944 37.80439832 -8 53 C-8.66 53 -9.32 53 -10 53 C-9.97905273 52.12263184 -9.95810547 51.24526367 -9.93652344 50.34130859 C-9.868074 47.06483317 -9.81806949 43.78912488 -9.78027344 40.51220703 C-9.76024157 39.09802205 -9.73300752 37.68391903 -9.69824219 36.27001953 C-9.64934511 34.22928581 -9.62694877 32.1896531 -9.609375 30.1484375 C-9.58842773 28.92302246 -9.56748047 27.69760742 -9.54589844 26.43505859 C-10.22944137 21.26438705 -12.67230394 18.2255656 -16.4375 14.75 C-22.99221883 10.27360665 -29.43421515 10.26947442 -37.125 11.5 C-37.74375 11.665 -38.3625 11.83 -39 12 C-39 11.34 -39 10.68 -39 10 C-35.54916005 7.69944003 -34.12824272 7.72989744 -30.0625 7.75 C-28.50208984 7.74226563 -28.50208984 7.74226563 -26.91015625 7.734375 C-24.01408502 7.99871439 -22.51542 8.65491225 -20 10 C-17.66796188 10.0777346 -15.33160941 10.08967728 -13 10 C-13.66 8.02 -14.32 6.04 -15 4 C-11.48536988 5.89980007 -9.10449322 7.56635317 -7 11 C-7 11.66 -7 12.32 -7 13 C-6.34 13 -5.68 13 -5 13 C-4.9175 12.154375 -4.835 11.30875 -4.75 10.4375 C-3.84266147 6.27886509 -2.23458727 3.60417301 0 0 Z " fill="#B9852F" transform="translate(143,56)"/>
<path d="M0 0 C0.99 0.33 1.98 0.66 3 1 C3 8.26 3 15.52 3 23 C3.66 23 4.32 23 5 23 C4.96519531 22.40832031 4.93039063 21.81664062 4.89453125 21.20703125 C4.72436825 16.2398924 4.83144791 13.09271311 8 9 C9.32 9.33 10.64 9.66 12 10 C11.125 14.875 11.125 14.875 10 16 C9.63239269 18.32817964 9.29758419 20.6618385 9 23 C10.32 23.33 11.64 23.66 13 24 C6.07 24 -0.86 24 -8 24 C-8 12.33333333 -8 12.33333333 -5 9 C-4.01 9 -3.02 9 -2 9 C-1.34 6.03 -0.68 3.06 0 0 Z " fill="#171617" transform="translate(70,125)"/>
<path d="M0 0 C-0.33 0.66 -0.66 1.32 -1 2 C-4.02162484 2.3826713 -6.96812513 2.63817096 -10.00390625 2.81640625 C-10.9157518 2.87779282 -11.82759735 2.93917938 -12.76707458 3.00242615 C-15.69837192 3.19812749 -18.63030539 3.38078315 -21.5625 3.5625 C-24.46948599 3.75025741 -27.37627197 3.94072647 -30.28294373 4.13328552 C-32.09364966 4.25240974 -33.90456854 4.36835421 -35.7157135 4.48060608 C-40.84451329 4.8086091 -45.90677055 5.31077099 -51 6 C-50.38987061 6.02223633 -49.77974121 6.04447266 -49.15112305 6.06738281 C-46.68359334 6.15968928 -44.21691672 6.26758708 -41.75 6.375 C-40.44095703 6.42140625 -40.44095703 6.42140625 -39.10546875 6.46875 C-38.26113281 6.50742188 -37.41679688 6.54609375 -36.546875 6.5859375 C-35.77182617 6.6173584 -34.99677734 6.6487793 -34.19824219 6.68115234 C-31.79134258 7.03026506 -30.10397705 7.80551104 -28 9 C-47.11016151 9.32010321 -65.95571531 8.43701606 -85 7 C-81.57905758 4.71937172 -80.31812778 4.78074993 -76.3125 4.875 C-74.82169922 4.90207031 -74.82169922 4.90207031 -73.30078125 4.9296875 C-72.54152344 4.95289062 -71.78226563 4.97609375 -71 5 C-71 4.34 -71 3.68 -71 3 C-70.05817871 3.01740234 -69.11635742 3.03480469 -68.14599609 3.05273438 C-56.76825564 3.16947191 -45.6080156 2.33863993 -34.28710938 1.28173828 C-22.82199257 0.22397332 -11.51385931 -0.1849616 0 0 Z " fill="#D3BE7F" transform="translate(100,112)"/>
<path d="M0 0 C2.5625 0.875 2.5625 0.875 4.19140625 2.98828125 C5.85227305 6.48509199 6.02945925 9.07586205 6.0625 12.9375 C6.0934375 14.14535156 6.124375 15.35320312 6.15625 16.59765625 C5.5625 19.875 5.5625 19.875 3.1953125 22.3046875 C0.5625 23.875 0.5625 23.875 -2.0625 23.9375 C-5.25455169 22.50947688 -5.91188919 20.99123344 -7.4375 17.875 C-7.8359375 14.9375 -7.8359375 14.9375 -7.8125 11.875 C-7.82023438 10.864375 -7.82796875 9.85375 -7.8359375 8.8125 C-7.38322924 5.47488614 -6.41626296 3.57770063 -4.4375 0.875 C-2.4375 -0.125 -2.4375 -0.125 0 0 Z " fill="#140E08" transform="translate(156.4375,140.125)"/>
<path d="M0 0 C0 0.66 0 1.32 0 2 C-9.67039347 2.69336554 -19.32447708 3.22076561 -29.015625 3.53515625 C-30.94205086 3.59975792 -30.94205086 3.59975792 -32.90739441 3.66566467 C-36.32162598 3.77923027 -39.73597883 3.88855709 -43.15040207 3.99619293 C-45.26216702 4.06288424 -47.37389725 4.13060538 -49.48562622 4.19842529 C-70.65983197 4.87412983 -91.81415866 5.30382343 -113 5 C-112.67 4.34 -112.34 3.68 -112 3 C-87.33876215 1.86506763 -62.68331035 0.87037355 -38 0.375 C-37.00532715 0.35462677 -36.0106543 0.33425354 -34.98583984 0.31326294 C-23.32249351 0.07898488 -11.66578571 -0.05640692 0 0 Z " fill="#875D27" transform="translate(187,185)"/>
<path d="M0 0 C2.7426487 1.2466585 4.1565009 2.59316025 6.0625 4.9375 C7.0204081 10.38912402 7.2613774 16.83726786 4.375 21.75 C2.0625 23.9375 2.0625 23.9375 -0.6875 24.3125 C-1.43 24.18875 -2.1725 24.065 -2.9375 23.9375 C-6.62845046 17.59367889 -7.96467326 13.04619304 -6.125 5.6875 C-3.61862798 -0.11672993 -3.61862798 -0.11672993 0 0 Z " fill="#0B0504" transform="translate(197.9375,179.0625)"/>
<path d="M0 0 C2.4375 0.625 2.4375 0.625 4.1875 2.4375 C6.82504007 7.05319512 6.95871096 11.43939262 6.4375 16.625 C4.34659091 21.71590909 4.34659091 21.71590909 2.4375 23.625 C0.125 24.0625 0.125 24.0625 -2.5625 23.625 C-6.16887123 20.01862877 -6.86209697 17.19035938 -7.0625 12.125 C-6.84599591 6.65267259 -6.04290663 1.47387967 0 0 Z " fill="#0C0907" transform="translate(111.5625,105.375)"/>
<path d="M0 0 C4.1427724 2.95912314 5.92042765 7.13798437 7 12 C7.56799991 18.58006045 7.46944115 24.82639713 5 31 C4.01 31.495 4.01 31.495 3 32 C2.05960196 28.06943009 1.9252044 24.47178778 2 20.4375 C2.16236682 15.12640683 2.16236682 15.12640683 1 10 C-1.17608462 8.42421459 -2.37726915 7.9433881 -5.0625 8.1875 C-7.07844361 8.88912719 -7.07844361 8.88912719 -8.5 10.5 C-10.28787948 12.28787948 -11.57068271 12.48227664 -14 13 C-13.74379316 11.3934324 -13.46944129 9.7897517 -13.1875 8.1875 C-13.03667969 7.29417969 -12.88585937 6.40085938 -12.73046875 5.48046875 C-11.93036292 2.76353184 -11.22497616 1.70779042 -9 0 C-5.41563853 -1.19478716 -3.63093708 -0.96330984 0 0 Z " fill="#D9A435" transform="translate(202,172)"/>
<path d="M0 0 C0 0.33 0 0.66 0 1 C-2.64 1.33 -5.28 1.66 -8 2 C-5.88074396 4.11925604 -1.3803907 3.41831017 1.5625 3.5625 C2.77196289 3.62727539 2.77196289 3.62727539 4.00585938 3.69335938 C6.00368805 3.79975262 8.0018207 3.90040888 10 4 C10.495 4.99 10.495 4.99 11 6 C-3.28473456 6.29486837 -17.48657099 5.78409601 -31.75 5.0625 C-33.06254761 4.99715057 -33.06254761 4.99715057 -34.40161133 4.93048096 C-43.29215551 4.48337388 -52.15208387 4.01041018 -61 3 C-61 2.67 -61 2.34 -61 2 C-40.6177513 0.42082722 -20.44446336 -0.28686241 0 0 Z " fill="#B68A3F" transform="translate(75,149)"/>
<path d="M0 0 C2.875 -0.1875 2.875 -0.1875 6 0 C11.10545024 7.65817536 10.38592056 16.20387518 9 25 C8.34 25.99 7.68 26.98 7 28 C5.68 28 4.36 28 3 28 C2.67 28.66 2.34 29.32 2 30 C1.6615815 26.3129484 1.33018392 22.62529741 1 18.9375 C0.90460938 17.89916016 0.80921875 16.86082031 0.7109375 15.79101562 C0.24100046 10.50422394 -0.12045745 5.30765619 0 0 Z " fill="#F1DB83" transform="translate(234,155)"/>
<path d="M0 0 C0.66 0.33 1.32 0.66 2 1 C2 1.66 2 2.32 2 3 C0.35 3.66 -1.3 4.32 -3 5 C-3 5.66 -3 6.32 -3 7 C-1.68 6.67 -0.36 6.34 1 6 C3.14809171 9.22213757 3.29386153 10.27775401 3 14 C2 15 2 15 -0.04125977 15.11352539 C-0.91580811 15.10828857 -1.79035645 15.10305176 -2.69140625 15.09765625 C-3.63564453 15.09443359 -4.57988281 15.09121094 -5.55273438 15.08789062 C-6.54595703 15.07951172 -7.53917969 15.07113281 -8.5625 15.0625 C-9.55958984 15.05798828 -10.55667969 15.05347656 -11.58398438 15.04882812 C-14.05604849 15.03700007 -16.52799518 15.02051849 -19 15 C-19.05424426 13.56422212 -19.0929039 12.12784992 -19.125 10.69140625 C-19.14820312 9.89162354 -19.17140625 9.09184082 -19.1953125 8.26782227 C-18.90972809 4.95183026 -17.33311573 3.26020586 -15 1 C-10.125 1.875 -10.125 1.875 -9 3 C-8.76038787 7.23314767 -8.67511353 10.36736489 -11 14 C-9.35 14 -7.7 14 -6 14 C-6.061875 12.783125 -6.12375 11.56625 -6.1875 10.3125 C-6.1875 6.41925275 -5.52489234 4.08597952 -3 1 C-2.01 0.67 -1.02 0.34 0 0 Z " fill="#2F271B" transform="translate(102,133)"/>
<path d="M0 0 C0.33 0 0.66 0 1 0 C1.33 4.62 1.66 9.24 2 14 C5.9714169 13.37158027 5.9714169 13.37158027 8 11 C7.41477652 25.54986658 7.41477652 25.54986658 4 32 C3.35202264 33.5824571 2.70630267 35.16583989 2.0625 36.75 C0.58076953 40.10820767 -0.65635979 42.20876417 -4 44 C-4 42.35 -4 40.7 -4 39 C-3.01 38.505 -3.01 38.505 -2 38 C-2.33 37.67 -2.66 37.34 -3 37 C-2.93496971 34.76827867 -2.79712722 32.53852364 -2.625 30.3125 C-2.53476563 29.09175781 -2.44453125 27.87101562 -2.3515625 26.61328125 C-2 23 -2 23 -1.49609375 20.09765625 C-0.85796454 16.11311718 -0.64565486 12.15160214 -0.4375 8.125 C-0.39431641 7.34125 -0.35113281 6.5575 -0.30664062 5.75 C-0.20146649 3.83349351 -0.10032075 1.91676667 0 0 Z " fill="#CC962E" transform="translate(235,169)"/>
<path d="M0 0 C2.6875 0.375 2.6875 0.375 4.9375 2.6875 C8.51453332 8.18080117 8.3260306 14.0064974 7.6875 20.375 C6.51065469 23.23152452 4.87949871 25.18300129 2.6875 27.375 C-0.125 27.75 -0.125 27.75 -3.3125 27.375 C-5.6875 24.875 -5.6875 24.875 -7.3125 22.375 C-8.56791557 26.14124671 -7.68311958 27.74688934 -6.3125 31.375 C-10.8097009 27.74822508 -10.38788632 26.84729575 -11.3125 20.375 C-19.5625 19.715 -27.8125 19.055 -36.3125 18.375 C-36.3125 18.045 -36.3125 17.715 -36.3125 17.375 C-27.4025 17.375 -18.4925 17.375 -9.3125 17.375 C-8.6525 14.075 -7.9925 10.775 -7.3125 7.375 C-3.3580259 0.54454474 -3.3580259 0.54454474 0 0 Z M-4.625 4.6875 C-7.27421748 9.23982881 -7.05742456 14.2959689 -6.3125 19.375 C-5.31071394 22.17678668 -4.48604822 23.20145178 -2.3125 25.375 C0.23162036 26.20856413 0.23162036 26.20856413 2.6875 25.375 C6.62051368 21.30152155 6.96205553 17.07300814 6.91796875 11.66796875 C6.56161699 8.12257076 5.23243519 4.91993519 2.6875 2.375 C-0.97959067 1.68122609 -1.94759095 2.01009095 -4.625 4.6875 Z " fill="#D0B26E" transform="translate(111.3125,103.625)"/>
<path d="M0 0 C4.75 0.75 4.75 0.75 7 3 C6.74964126 7.50645731 6.25629805 10.74370195 3 14 C2.34 14 1.68 14 1 14 C1 14.66 1 15.32 1 16 C2.65 16.33 4.3 16.66 6 17 C5.67 18.65 5.34 20.3 5 22 C2.6875 22.25 2.6875 22.25 0 22 C-2.49909582 19.60181779 -2.98119841 18.15631127 -3.3984375 14.6875 C-3.39070312 13.470625 -3.38296875 12.25375 -3.375 11 C-3.38273438 9.783125 -3.39046875 8.56625 -3.3984375 7.3125 C-2.98329093 3.86108538 -2.35052078 2.48732358 0 0 Z " fill="#1F1F21" transform="translate(178,134)"/>
<path d="M0 0 C4.12830258 1.37610086 4.88204223 3.242333 7 7 C9.03531938 13.00419216 10.20146747 19.69738676 9 26 C5.87794433 29 5.87794433 29 3 29 C3.061875 30.423125 3.061875 30.423125 3.125 31.875 C3 35 3 35 1 37 C1.0407666 36.36610352 1.0815332 35.73220703 1.12353516 35.07910156 C2.21276951 18.43701281 2.21276951 18.43701281 0 2 C0 1.34 0 0.68 0 0 Z " fill="#402811" transform="translate(241,152)"/>
<path d="M0 0 C0.33 1.32 0.66 2.64 1 4 C1.99 3.67 2.98 3.34 4 3 C5.55643549 2.98446183 7.11400687 3.03201313 8.66796875 3.12109375 C10.00698242 3.19360352 10.00698242 3.19360352 11.37304688 3.26757812 C12.76620117 3.35168945 12.76620117 3.35168945 14.1875 3.4375 C15.59805664 3.51581055 15.59805664 3.51581055 17.03710938 3.59570312 C19.35841501 3.72531918 21.67928409 3.86028181 24 4 C24 5.32 24 6.64 24 8 C-9.86239997 8.25728299 -9.86239997 8.25728299 -18 6 C-17.67 5.01 -17.34 4.02 -17 3 C-17 3.66 -17 4.32 -17 5 C-16.34 5 -15.68 5 -15 5 C-15 4.34 -15 3.68 -15 3 C-11.7 2.34 -8.4 1.68 -5 1 C-5 1.99 -5 2.98 -5 4 C-3.35 4 -1.7 4 0 4 C0 2.68 0 1.36 0 0 Z " fill="#E4BC5D" transform="translate(124,148)"/>
<path d="M0 0 C0.99 0.33 1.98 0.66 3 1 C3 2.32 3 3.64 3 5 C4.98 5 6.96 5 9 5 C7.68 8.96 6.36 12.92 5 17 C0.38 17 -4.24 17 -9 17 C-9 8.53571429 -9 8.53571429 -6 5 C-4.68 5 -3.36 5 -2 5 C-2 6.98 -2 8.96 -2 11 C-2.99 11.495 -2.99 11.495 -4 12 C-4.65213292 14.02463255 -4.65213292 14.02463255 -5 16 C-3.35 16 -1.7 16 0 16 C0 10.72 0 5.44 0 0 Z " fill="#24211D" transform="translate(139,129)"/>
<path d="M0 0 C7.77134265 1.99265196 14.84081881 6.90278587 20 13 C22.43950169 17.29816965 22.16334608 21.18129062 22 26 C19 27 19 27 16 26 C16 25.34 16 24.68 16 24 C15.236875 24.103125 14.47375 24.20625 13.6875 24.3125 C12.800625 24.209375 11.91375 24.10625 11 24 C9.18116991 21.6167054 8 20.04181663 8 17 C12.15267176 13.88549618 12.15267176 13.88549618 15.3125 14.3125 C15.869375 14.539375 16.42625 14.76625 17 15 C15.51889439 11.23517848 13.51225319 9.66563295 10.1875 7.4375 C9.33542969 6.85871094 8.48335937 6.27992187 7.60546875 5.68359375 C5.82133752 4.53072934 4.00923821 3.42034268 2.17578125 2.34765625 C1.45777344 1.90292969 0.73976562 1.45820312 0 1 C0 0.67 0 0.34 0 0 Z " fill="#DCAC3B" transform="translate(182,36)"/>
<path d="M0 0 C-0.226875 0.5775 -0.45375 1.155 -0.6875 1.75 C-1.34180008 4.52253053 -1.34180008 4.52253053 2 8 C-10.87 7.505 -10.87 7.505 -24 7 C-24 6.67 -24 6.34 -24 6 C-18.555 5.505 -18.555 5.505 -13 5 C-14.33675781 4.95101562 -15.67351562 4.90203125 -17.05078125 4.8515625 C-18.80470838 4.77652818 -20.55861361 4.70098064 -22.3125 4.625 C-23.19357422 4.5940625 -24.07464844 4.563125 -24.98242188 4.53125 C-25.82998047 4.49257812 -26.67753906 4.45390625 -27.55078125 4.4140625 C-28.33106689 4.3826416 -29.11135254 4.3512207 -29.9152832 4.31884766 C-32 4 -32 4 -35 2 C-31.22983769 1.6587842 -27.45878834 1.32851717 -23.6875 1 C-22.63498047 0.90460938 -21.58246094 0.80921875 -20.49804688 0.7109375 C-13.64536517 0.12055261 -6.8771579 -0.12334173 0 0 Z " fill="#B5822F" transform="translate(81,115)"/>
<path d="M0 0 C0.33 1.32 0.66 2.64 1 4 C1.99 4 2.98 4 4 4 C4 3.34 4 2.68 4 2 C5.98 1.67 7.96 1.34 10 1 C9.2575 1.721875 8.515 2.44375 7.75 3.1875 C-0.79439934 11.92609024 -5.34315125 22.16070906 -8 34 C-8.33 34 -8.66 34 -9 34 C-9.64406497 21.88203677 -7.11992982 11.50074289 -1 1 C-0.67 0.67 -0.34 0.34 0 0 Z " fill="#B18130" transform="translate(94,67)"/>
<path d="M0 0 C0.66 0.66 1.32 1.32 2 2 C1.01 3.485 1.01 3.485 0 5 C0.556875 4.67 1.11375 4.34 1.6875 4 C4.48139392 2.79182966 5.98623657 2.48545502 9 3 C11.8125 5.5 11.8125 5.5 14 8 C13.67 8.99 13.34 9.98 13 11 C12.38125 10.79375 11.7625 10.5875 11.125 10.375 C10.42375 10.25125 9.7225 10.1275 9 10 C8.34 10.66 7.68 11.32 7 12 C3.07674388 12.09249327 -0.81149859 11.48759032 -4.4375 10 C-8.47832365 8.42309321 -12.69937151 8.31732793 -17 8 C-17 7.67 -17 7.34 -17 7 C-16.27554688 6.99742188 -15.55109375 6.99484375 -14.8046875 6.9921875 C-7.85425667 6.75934203 -7.85425667 6.75934203 -2.3125 2.9375 C-1.1678125 1.4834375 -1.1678125 1.4834375 0 0 Z " fill="#F5CA57" transform="translate(186,41)"/>
<path d="M0 0 C5.35946028 4.622852 7.62693931 9.63527952 8.40625 16.6640625 C8.62815276 26.03945425 7.63402006 33.07673092 2 41 C-1.6441774 43.4294516 -3.71241272 43.16179575 -8 43 C-8 42.67 -8 42.34 -8 42 C-5.36 41.67 -2.72 41.34 0 41 C0 40.01 0 39.02 0 38 C-0.66 37.67 -1.32 37.34 -2 37 C-1.34 36.01 -0.68 35.02 0 34 C-0.66 33.34 -1.32 32.68 -2 32 C-1.525625 31.401875 -1.05125 30.80375 -0.5625 30.1875 C1.68630502 25.59993775 1.743534 21.04972703 2 16 C2.33 16 2.66 16 3 16 C2.98839844 17.05960938 2.97679687 18.11921875 2.96484375 19.2109375 C2.95546524 20.59895658 2.94636511 21.98697755 2.9375 23.375 C2.92912109 24.07367188 2.92074219 24.77234375 2.91210938 25.4921875 C2.8164558 29.37295376 2.8164558 29.37295376 4 33 C6.84008569 25.18976435 7.47817871 16.72834074 4.25 8.9375 C2.0021234 4.58688077 2.0021234 4.58688077 -2 2 C-6.20625886 2.22138205 -8.47567443 2.65044962 -12 5 C-11.0518738 2.62968451 -10.31103322 1.23327492 -8.25 -0.3125 C-4.96738328 -1.31552177 -3.27035117 -1.1119194 0 0 Z " fill="#9D7332" transform="translate(202,170)"/>
<path d="M0 0 C0 0.33 0 0.66 0 1 C-1.35532837 1.08302368 -1.35532837 1.08302368 -2.73803711 1.16772461 C-6.07976107 1.37463117 -9.42116964 1.58567294 -12.76245117 1.79956055 C-14.21058841 1.89139998 -15.65883225 1.98157375 -17.10717773 2.07006836 C-19.18503399 2.19731306 -21.26243733 2.33047881 -23.33984375 2.46484375 C-24.59144287 2.543396 -25.84304199 2.62194824 -27.13256836 2.70288086 C-29.89470765 2.6845537 -29.89470765 2.6845537 -31 4 C-34.02977804 4.08871273 -37.03667022 4.1151935 -40.06640625 4.09765625 C-40.97502914 4.0962413 -41.88365204 4.09482635 -42.81980896 4.09336853 C-45.73407221 4.08775193 -48.64825981 4.07519665 -51.5625 4.0625 C-53.53320202 4.05748714 -55.50390524 4.05292386 -57.47460938 4.04882812 C-62.31643559 4.03777711 -67.15820495 4.02050138 -72 4 C-69.58770677 1.58770677 -68.91714228 1.71751282 -65.6081543 1.58935547 C-64.23852791 1.52951981 -64.23852791 1.52951981 -62.8412323 1.46847534 C-61.84561783 1.43505035 -60.85000336 1.40162537 -59.82421875 1.3671875 C-58.27176201 1.30484421 -58.27176201 1.30484421 -56.6879425 1.24124146 C-54.48134314 1.15453054 -52.27455703 1.07246968 -50.06762695 0.99462891 C-46.76660392 0.87779963 -43.46639531 0.74693607 -40.16601562 0.61328125 C-26.771566 0.0918373 -13.40383195 -0.11172077 0 0 Z " fill="#DCA239" transform="translate(157,188)"/>
<path d="M0 0 C1.98 0 3.96 0 6 0 C6.86963087 2.99706695 7.11763099 5.64956526 7.09765625 8.765625 C7.09443359 9.65507813 7.09121094 10.54453125 7.08789062 11.4609375 C7.07951172 12.38132812 7.07113281 13.30171875 7.0625 14.25 C7.05798828 15.18585938 7.05347656 16.12171875 7.04882812 17.0859375 C7.03706918 19.39069041 7.02063426 21.69531227 7 24 C6.34 23.67 5.68 23.34 5 23 C4.34 23.66 3.68 24.32 3 25 C2.49279088 22.14694871 1.99406366 19.29283186 1.5 16.4375 C1.35691406 15.63763672 1.21382812 14.83777344 1.06640625 14.01367188 C0.25230605 9.26475402 -0.15519589 4.81753923 0 0 Z " fill="#A16325" transform="translate(210,86)"/>
<path d="M0 0 C2.4759746 3.71396191 2.95238019 7.24183101 3.625 11.5625 C3.82283081 12.81123901 3.82283081 12.81123901 4.0246582 14.08520508 C5.28414964 22.73718668 5.28130362 31.27958776 5 40 C4.67 40 4.34 40 4 40 C3.23363909 36.53910321 2.82850629 33.23922512 2.68359375 29.69921875 C2.64169922 28.72275391 2.59980469 27.74628906 2.55664062 26.74023438 C2.49766602 25.22913086 2.49766602 25.22913086 2.4375 23.6875 C2.39431641 22.66076172 2.35113281 21.63402344 2.30664062 20.57617188 C2.20093175 18.05090431 2.09883532 15.52554438 2 13 C1.01 13.33 0.02 13.66 -1 14 C-1.99 13.67 -2.98 13.34 -4 13 C-3.83242187 14.13179687 -3.66484375 15.26359375 -3.4921875 16.4296875 C-3.28587625 17.9113774 -3.08017883 19.39315286 -2.875 20.875 C-2.76285156 21.62136719 -2.65070313 22.36773437 -2.53515625 23.13671875 C-2.27233554 25.08159197 -2.1283485 27.04165038 -2 29 C-2.66 29.66 -3.32 30.32 -4 31 C-4.13277344 30.04738281 -4.26554688 29.09476563 -4.40234375 28.11328125 C-4.57894531 26.85902344 -4.75554687 25.60476562 -4.9375 24.3125 C-5.11152344 23.07113281 -5.28554687 21.82976562 -5.46484375 20.55078125 C-5.89822897 17.67525452 -6.39649282 14.84355187 -7 12 C-5.68 12 -4.36 12 -3 12 C-2.67 9.36 -2.34 6.72 -2 4 C-1.34 4 -0.68 4 0 4 C0 2.68 0 1.36 0 0 Z " fill="#AD7D39" transform="translate(214,73)"/>
<path d="M0 0 C0 1.32 0 2.64 0 4 C0.99 4.33 1.98 4.66 3 5 C6.09646027 8.27860499 7.276903 10.60238968 8 15 C7.39414063 14.79503906 6.78828125 14.59007812 6.1640625 14.37890625 C0.09658479 12.4279788 -5.64303124 11.3922385 -12 11 C-11.360625 10.401875 -10.72125 9.80375 -10.0625 9.1875 C-7.79689611 7.09189663 -7.79689611 7.09189663 -7 4 C-3.57142857 0 -3.57142857 0 0 0 Z " fill="#1D1209" transform="translate(182,24)"/>
<path d="M0 0 C2.375 1.0625 2.375 1.0625 3.75 3.0625 C4.61349071 7.20725539 4.04366124 10.91499314 3.375 15.0625 C2.385 15.3925 1.395 15.7225 0.375 16.0625 C0.045 15.4025 -0.285 14.7425 -0.625 14.0625 C-2.605 15.0525 -2.605 15.0525 -4.625 16.0625 C-6.8164836 13.8710164 -6.44253099 9.68858995 -6.68359375 6.74609375 C-6.625 4.0625 -6.625 4.0625 -5 1.3125 C-2.625 0.0625 -2.625 0.0625 0 0 Z " fill="#1C1817" transform="translate(156.625,139.9375)"/>
<path d="M0 0 C2.62187494 1.04874998 3.79371361 1.64931313 5.25 4.125 C5.4975 4.74375 5.745 5.3625 6 6 C10.7897321 6.23428313 10.7897321 6.23428313 15 4 C15.99 4 16.98 4 18 4 C18 4.99 18 5.98 18 7 C17.01 7.495 17.01 7.495 16 8 C15.65657551 9.33076989 15.32380126 10.66431979 15 12 C13 14 13 14 9.6875 14.5 C6 14 6 14 3.0625 11.3125 C0.9629798 7.94054332 0.58810002 6.81007484 1 3 C0.67 2.01 0.34 1.02 0 0 Z " fill="#F1D885" transform="translate(146,158)"/>
<path d="M0 0 C0.99 0.33 1.98 0.66 3 1 C3 8.26 3 15.52 3 23 C3.66 23 4.32 23 5 23 C4.96519531 22.40832031 4.93039063 21.81664062 4.89453125 21.20703125 C4.72436825 16.2398924 4.83144791 13.09271311 8 9 C9.32 9.33 10.64 9.66 12 10 C11.125 14.875 11.125 14.875 10 16 C9.63239269 18.32817964 9.29758419 20.6618385 9 23 C10.32 23.33 11.64 23.66 13 24 C6.73 24 0.46 24 -6 24 C-6 21.69 -6 19.38 -6 17 C-5.67 17 -5.34 17 -5 17 C-5 18.98 -5 20.96 -5 23 C-2.69 23 -0.38 23 2 23 C1.67 17.06 1.34 11.12 1 5 C0.67 5 0.34 5 0 5 C0 3.35 0 1.7 0 0 Z " fill="#221F1B" transform="translate(70,125)"/>
<path d="M0 0 C0.66 0 1.32 0 2 0 C2 2.64 2 5.28 2 8 C-3.29653879 8.93959624 -8.08668517 8.98841115 -13.4375 8.5625 C-14.16904297 8.51029297 -14.90058594 8.45808594 -15.65429688 8.40429688 C-17.43668622 8.27615124 -19.2184257 8.1390184 -21 8 C-21 6.68 -21 5.36 -21 4 C-17.21401311 3.11823596 -13.6966357 2.86534997 -9.8125 2.875 C-8.76707031 2.87242187 -7.72164062 2.86984375 -6.64453125 2.8671875 C-4 3 -4 3 -2 4 C-1.34 2.68 -0.68 1.36 0 0 Z " fill="#D5A53F" transform="translate(146,144)"/>
<path d="M0 0 C1.9375 0.25 1.9375 0.25 4 1 C6.06723714 4.10085571 6.24497423 4.72931681 6.1953125 8.23046875 C6.18886719 9.03291016 6.18242187 9.83535156 6.17578125 10.66210938 C6.15902344 11.49548828 6.14226562 12.32886719 6.125 13.1875 C6.11597656 14.03248047 6.10695312 14.87746094 6.09765625 15.74804688 C6.07410703 17.83215243 6.03823647 19.91611217 6 22 C4.35 22.33 2.7 22.66 1 23 C0.93941406 21.99839844 0.87882813 20.99679688 0.81640625 19.96484375 C0.73191595 18.62238669 0.64727232 17.27993928 0.5625 15.9375 C0.48128906 14.62652344 0.40007812 13.31554687 0.31640625 11.96484375 C0.10556806 9.32285901 -0.19953533 6.68671842 -0.59765625 4.06640625 C-0.73042969 3.05449219 -0.86320313 2.04257813 -1 1 C-0.67 0.67 -0.34 0.34 0 0 Z " fill="#26221D" transform="translate(166,134)"/>
<path d="M0 0 C-0.33 0.66 -0.66 1.32 -1 2 C-3.92860965 2.39607535 -6.77836802 2.66297556 -9.72265625 2.8515625 C-10.61552841 2.91532074 -11.50840057 2.97907898 -12.42832947 3.04476929 C-14.33219359 3.17862172 -16.23639431 3.30775459 -18.14086914 3.43261719 C-20.99912526 3.62082692 -23.8559098 3.82467939 -26.71289062 4.03125 C-37.49570653 4.78579654 -48.19014278 5.19149608 -59 5 C-55.27480974 2.66316923 -51.42400803 2.47133843 -47.1484375 2.1484375 C-46.37553375 2.08467926 -45.60263 2.02092102 -44.80630493 1.95523071 C-43.16416306 1.82189132 -41.5216789 1.69271171 -39.87890625 1.56738281 C-37.43120789 1.37931862 -34.98527298 1.17516452 -32.5390625 0.96875 C-21.67345837 0.08806679 -10.89831885 -0.16178341 0 0 Z " fill="#D9C083" transform="translate(100,112)"/>
<path d="M0 0 C0.33 0 0.66 0 1 0 C1 2.97 1 5.94 1 9 C-0.05960938 9.13277344 -1.11921875 9.26554687 -2.2109375 9.40234375 C-3.59898279 9.58053875 -4.98700231 9.7589346 -6.375 9.9375 C-7.07367188 10.02451172 -7.77234375 10.11152344 -8.4921875 10.20117188 C-12.36783575 10.66318128 -12.36783575 10.66318128 -16 12 C-14.94039062 12.27714844 -13.88078125 12.55429688 -12.7890625 12.83984375 C-11.40101131 13.205614 -10.01299213 13.57150572 -8.625 13.9375 C-7.92632812 14.11990234 -7.22765625 14.30230469 -6.5078125 14.49023438 C-1.2265625 15.88671875 -1.2265625 15.88671875 1 17 C1 17.66 1 18.32 1 19 C1.5775 19.2475 2.155 19.495 2.75 19.75 C5.3002997 21.16683317 7.01785701 22.87627537 9 25 C8.67 25.66 8.34 26.32 8 27 C7.5875 26.61328125 7.175 26.2265625 6.75 25.828125 C-2.1084461 17.83970486 -10.38146026 16.14975133 -22 15 C-14.38042116 7.21477814 -14.38042116 7.21477814 -8.171875 6.8203125 C-5.44069272 6.81330947 -2.72776803 6.86895065 0 7 C0 4.69 0 2.38 0 0 Z " fill="#C9B67E" transform="translate(211,102)"/>
<path d="M0 0 C1.9375 1.3125 1.9375 1.3125 3 3 C2.56640625 5.10546875 2.56640625 5.10546875 2 7 C1.38511719 6.94199219 0.77023438 6.88398438 0.13671875 6.82421875 C-2.32405191 6.68685516 -4.56024603 6.6340369 -7 7 C-8.88051585 9.35589996 -8.88051585 9.35589996 -10 12 C-12.07421875 12.66015625 -12.07421875 12.66015625 -14 13 C-13.74379316 11.3934324 -13.46944129 9.7897517 -13.1875 8.1875 C-13.03667969 7.29417969 -12.88585937 6.40085938 -12.73046875 5.48046875 C-11.93036292 2.76353184 -11.22497616 1.70779042 -9 0 C-5.45026831 -1.1832439 -3.60040463 -0.90010116 0 0 Z " fill="#F3D075" transform="translate(202,172)"/>
<path d="M0 0 C4.93872549 4.77941176 4.93872549 4.77941176 5.09765625 7.9453125 C5.04882812 10.97265625 5.04882812 10.97265625 5 14 C0.545 14.495 0.545 14.495 -4 15 C-5.84291549 9.82228506 -5.84291549 9.82228506 -6 7 C-3.6875 4.125 -3.6875 4.125 -1 2 C-0.67 1.34 -0.34 0.68 0 0 Z " fill="#0A0706" transform="translate(120,132)"/>
<path d="M0 0 C2.34920826 1.81633907 3.37663107 3.41275577 5 6 C4.67 6.99 4.34 7.98 4 9 C3.278125 8.67 2.55625 8.34 1.8125 8 C-1.11064582 6.96065926 -2.93382245 6.60690031 -6 7 C-8.28484306 8.39957197 -8.28484306 8.39957197 -10 10 C-10.33 9.67 -10.66 9.34 -11 9 C-11.66 9.66 -12.32 10.32 -13 11 C-12.44509362 7.67056175 -11.79000672 4.88389972 -10 2 C-6.23500419 -0.5099972 -4.45706394 -0.61476744 0 0 Z " fill="#A86C26" transform="translate(115,98)"/>
<path d="M0 0 C2.875 -0.1875 2.875 -0.1875 6 0 C8.34770643 3.52155964 8.37669614 5.50771843 8.625 9.6875 C8.69976562 10.86699219 8.77453125 12.04648438 8.8515625 13.26171875 C8.90054688 14.16535156 8.94953125 15.06898438 9 16 C8.01 15.67 7.02 15.34 6 15 C6 14.01 6 13.02 6 12 C4.68 12.33 3.36 12.66 2 13 C0.24252386 8.49646738 -0.19294408 4.82360189 0 0 Z " fill="#FCF1AB" transform="translate(234,155)"/>
<path d="M0 0 C0 0.33 0 0.66 0 1 C-0.98742188 1.06058594 -1.97484375 1.12117187 -2.9921875 1.18359375 C-4.27351563 1.26738281 -5.55484375 1.35117188 -6.875 1.4375 C-8.15117188 1.51871094 -9.42734375 1.59992188 -10.7421875 1.68359375 C-13.88300152 1.79206027 -13.88300152 1.79206027 -16 3 C-10.555 3.495 -10.555 3.495 -5 4 C-5 4.33 -5 4.66 -5 5 C-19.42749017 5.33166644 -33.636175 4.31246615 -48 3 C-48 2.67 -48 2.34 -48 2 C-14.49821699 -0.38776806 -14.49821699 -0.38776806 0 0 Z " fill="#775B33" transform="translate(62,149)"/>
<path d="M0 0 C0.33 0 0.66 0 1 0 C1.165 0.845625 1.33 1.69125 1.5 2.5625 C3.3107853 6.71221631 5.58668023 8.44123539 9.0234375 11.265625 C11.70771321 13.62099736 13.29260947 15.86978403 15 19 C15 19.99 15 20.98 15 22 C13.7934375 22.680625 13.7934375 22.680625 12.5625 23.375 C9.75117093 24.76652185 9.75117093 24.76652185 9.1875 27.6875 C9.125625 28.450625 9.06375 29.21375 9 30 C6.25722422 26.80009492 4.3697164 23.99500618 3 20 C4.32 20.33 5.64 20.66 7 21 C9.25826509 18.25689921 9.25826509 18.25689921 8.87890625 15.52734375 C7.80194829 12.43049131 6.55383543 11.4866832 3.9375 9.5625 C0.0597089 6.41049868 0.0597089 6.41049868 -0.5 2.5625 C-0.335 1.716875 -0.17 0.87125 0 0 Z " fill="#C39036" transform="translate(217,108)"/>
<path d="M0 0 C2.84497738 1.70308251 3.91425081 3.36825006 5.27734375 6.36328125 C4.94734375 7.02328125 4.61734375 7.68328125 4.27734375 8.36328125 C3.84164062 7.95335937 3.4059375 7.5434375 2.95703125 7.12109375 C-3.64957397 1.14368903 -8.9573463 -0.06875977 -17.828125 0.1171875 C-25.12141746 0.737265 -30.2126234 4.9409432 -35.72265625 9.36328125 C-35.72265625 8.37328125 -35.72265625 7.38328125 -35.72265625 6.36328125 C-25.41697386 -3.91563314 -13.17198681 -4.70013626 0 0 Z " fill="#9C7534" transform="translate(187.72265625,51.63671875)"/>
<path d="M0 0 C2.96175123 0.61277612 4.38058783 1.25372522 7 3 C7.34057617 4.87939453 7.34057617 4.87939453 7.29296875 7.1328125 C7.28330078 7.93847656 7.27363281 8.74414062 7.26367188 9.57421875 C7.23853516 10.41597656 7.21339844 11.25773438 7.1875 12.125 C7.17396484 12.97449219 7.16042969 13.82398438 7.14648438 14.69921875 C7.11108219 16.79974837 7.05727401 18.89995293 7 21 C6.67 21 6.34 21 6 21 C6 19.02 6 17.04 6 15 C5.01 15 4.02 15 3 15 C2.67 15.66 2.34 16.32 2 17 C1.95101562 16.31292969 1.90203125 15.62585938 1.8515625 14.91796875 C1.77679688 14.01691406 1.70203125 13.11585938 1.625 12.1875 C1.55539063 11.29417969 1.48578125 10.40085938 1.4140625 9.48046875 C1.13354964 6.75601501 1.13354964 6.75601501 -1 4 C-0.625 1.8125 -0.625 1.8125 0 0 Z " fill="#C99B3E" transform="translate(160,139)"/>
<path d="M0 0 C2.75 1.4375 2.75 1.4375 5 3 C5.66 3.33 6.32 3.66 7 4 C7.625 6.5625 7.625 6.5625 8 9 C3.6822542 8.49202991 -0.03302114 7.80317221 -4 6 C-4 5.01 -4 4.02 -4 3 C-4.99 3 -5.98 3 -7 3 C-7.33 5.31 -7.66 7.62 -8 10 C-9.32 10.33 -10.64 10.66 -12 11 C-12 10.01 -12 9.02 -12 8 C-11.34 8 -10.68 8 -10 8 C-9.896875 7.236875 -9.79375 6.47375 -9.6875 5.6875 C-8.25734796 0.09690566 -5.54282493 -0.66513899 0 0 Z " fill="#C8932F" transform="translate(158,132)"/>
<path d="M0 0 C2.4375 0.875 2.4375 0.875 4.4375 3.875 C4.6328125 6.57421875 4.6328125 6.57421875 4.5625 9.5625 C4.54445312 10.55636719 4.52640625 11.55023438 4.5078125 12.57421875 C4.47300781 13.71310547 4.47300781 13.71310547 4.4375 14.875 C4.1075 14.875 3.7775 14.875 3.4375 14.875 C3.37691406 14.24851562 3.31632813 13.62203125 3.25390625 12.9765625 C3.12822266 11.75066406 3.12822266 11.75066406 3 10.5 C2.91878906 9.68789062 2.83757812 8.87578125 2.75390625 8.0390625 C2.54659886 5.83227195 2.54659886 5.83227195 1.4375 3.875 C0.1175 3.875 -1.2025 3.875 -2.5625 3.875 C-3.7202506 7.34825181 -3.63116652 10.23567448 -3.5625 13.875 C-2.2425 14.535 -0.9225 15.195 0.4375 15.875 C0.4375 13.565 0.4375 11.255 0.4375 8.875 C-0.5525 8.875 -1.5425 8.875 -2.5625 8.875 C-2.2325 7.555 -1.9025 6.235 -1.5625 4.875 C-0.5725 4.875 0.4175 4.875 1.4375 4.875 C3.02627287 8.05254575 2.4375 11.36882922 2.4375 14.875 C2.7675 15.535 3.0975 16.195 3.4375 16.875 C2.014375 17.3390625 2.014375 17.3390625 0.5625 17.8125 C-2.42330408 18.74894742 -2.42330408 18.74894742 -4.5625 19.875 C-5.4193534 16.12972143 -5.75474764 12.59053202 -5.8125 8.75 C-5.83828125 7.71617188 -5.8640625 6.68234375 -5.890625 5.6171875 C-5.5625 2.875 -5.5625 2.875 -4.20703125 1 C-2.5625 -0.125 -2.5625 -0.125 0 0 Z " fill="#2B2B2D" transform="translate(153.5625,113.125)"/>
<path d="M0 0 C6.27 0 12.54 0 19 0 C19 0.33 19 0.66 19 1 C16.36 1.33 13.72 1.66 11 2 C10.773125 2.763125 10.54625 3.52625 10.3125 4.3125 C8.71092221 7.59192118 7.30991772 8.54686539 4 10 C3.01 9.67 2.02 9.34 1 9 C0.67 6.03 0.34 3.06 0 0 Z " fill="#261A0B" transform="translate(27,120)"/>
<path d="M0 0 C0.33 1.32 0.66 2.64 1 4 C1.99 3.67 2.98 3.34 4 3 C6.06587115 3.08573227 8.12946525 3.23833535 10.1875 3.4375 C11.81751953 3.59025391 11.81751953 3.59025391 13.48046875 3.74609375 C14.72763672 3.87177734 14.72763672 3.87177734 16 4 C16 4.66 16 5.32 16 6 C13.2915983 6.02714434 10.58347279 6.04690846 7.875 6.0625 C6.73417969 6.07506836 6.73417969 6.07506836 5.5703125 6.08789062 C1.2610356 6.10646509 -2.75516474 5.86117265 -7 5 C-7.33 5.66 -7.66 6.32 -8 7 C-11.3 6.67 -14.6 6.34 -18 6 C-17.67 5.01 -17.34 4.02 -17 3 C-17 3.66 -17 4.32 -17 5 C-16.34 5 -15.68 5 -15 5 C-15 4.34 -15 3.68 -15 3 C-11.7 2.34 -8.4 1.68 -5 1 C-5 1.99 -5 2.98 -5 4 C-3.35 4 -1.7 4 0 4 C0 2.68 0 1.36 0 0 Z " fill="#DFB24B" transform="translate(124,148)"/>
<path d="M0 0 C0.99 0.66 1.98 1.32 3 2 C3.66 2 4.32 2 5 2 C5.28230356 10.0456514 3.75166237 16.77457617 0 24 C-2.6875 25.9375 -2.6875 25.9375 -5 27 C-4.73236688 21.55812657 -4.73236688 21.55812657 -4 19 C-3.154375 18.566875 -2.30875 18.13375 -1.4375 17.6875 C-0.633125 17.130625 0.17125 16.57375 1 16 C1.80515971 10.58898044 1.17754152 5.30858884 0 0 Z " fill="#26170D" transform="translate(248,162)"/>
<path d="M0 0 C2.5625 2.25 2.5625 2.25 5 5 C4.90847363 8.11189674 3.76883749 9.34674377 2 12 C-2.2742558 10.4169423 -4.26531794 7.49431596 -7 4 C-5.824375 3.566875 -5.824375 3.566875 -4.625 3.125 C-1.90328368 2.15087746 -1.90328368 2.15087746 0 0 Z " fill="#BD882D" transform="translate(222,118)"/>
<path d="M0 0 C0.33 0.66 0.66 1.32 1 2 C2.18078125 1.89300781 3.3615625 1.78601563 4.578125 1.67578125 C6.13534974 1.55382991 7.69264554 1.43278347 9.25 1.3125 C10.02730469 1.23966797 10.80460937 1.16683594 11.60546875 1.09179688 C12.35957031 1.03701172 13.11367187 0.98222656 13.890625 0.92578125 C14.58188477 0.86817627 15.27314453 0.81057129 15.98535156 0.7512207 C18.6507401 1.08035678 19.99284635 2.27817701 22 4 C17.90666095 4.07408587 13.81358067 4.1285704 9.71972656 4.16479492 C8.32675378 4.17989358 6.93382862 4.20037444 5.54101562 4.22631836 C3.54057115 4.26265122 1.53978173 4.27811192 -0.4609375 4.29296875 C-2.26763916 4.31653442 -2.26763916 4.31653442 -4.11083984 4.34057617 C-5.0642627 4.22818604 -6.01768555 4.1157959 -7 4 C-7.66 3.01 -8.32 2.02 -9 1 C-4.545 0.505 -4.545 0.505 0 0 Z " fill="#E0AF47" transform="translate(75,149)"/>
<path d="M0 0 C4.75 -0.125 4.75 -0.125 7 1 C6.85953745 3.95867918 6.71287776 6.91682264 6.5625 9.875 C6.50352539 11.13763672 6.50352539 11.13763672 6.44335938 12.42578125 C6.40146484 13.23144531 6.35957031 14.03710938 6.31640625 14.8671875 C6.27974854 15.61081543 6.24309082 16.35444336 6.20532227 17.12060547 C6 19 6 19 5 21 C4.01 21 3.02 21 2 21 C2.02320312 19.98679687 2.04640625 18.97359375 2.0703125 17.9296875 C2.0890841 16.57813242 2.1072828 15.22656931 2.125 13.875 C2.14175781 13.20984375 2.15851563 12.5446875 2.17578125 11.859375 C2.21847278 7.50483944 1.59996217 4.04399886 0 0 Z " fill="#AC782D" transform="translate(116,106)"/>
<path d="M0 0 C1.53445094 3.06890187 0.54984289 5.70094266 0 9 C0.99 9 1.98 9 3 9 C3 15.6 3 22.2 3 29 C2.01 29.33 1.02 29.66 0 30 C-2.09230769 25.56923077 -2.09230769 25.56923077 -1.625 22.6875 C-1.41875 22.130625 -1.2125 21.57375 -1 21 C-0.67 21.33 -0.34 21.66 0 22 C0 18.7 0 15.4 0 12 C-0.66 12 -1.32 12 -2 12 C-2.17835515 7.45194365 -1.99785435 4.1205746 0 0 Z " fill="#C28C30" transform="translate(189,175)"/>
<path d="M0 0 C1.32 0.33 2.64 0.66 4 1 C4.80967438 3.91482778 5.21845993 5.46113217 4.0625 8.3125 C3.5365625 9.1478125 3.5365625 9.1478125 3 10 C2.01 10 1.02 10 0 10 C-0.33 10.66 -0.66 11.32 -1 12 C-1.99 12 -2.98 12 -4 12 C-4 9.03 -4 6.06 -4 3 C-3.34 3 -2.68 3 -2 3 C-1.34 2.01 -0.68 1.02 0 0 Z " fill="#1A1919" transform="translate(87,136)"/>
<path d="M0 0 C2.4375 0.375 2.4375 0.375 5 1 C6.28446919 3.56893838 6.32977144 5.76576337 6.5625 8.625 C6.64628906 9.62789062 6.73007813 10.63078125 6.81640625 11.6640625 C6.87699219 12.43492187 6.93757812 13.20578125 7 14 C6.01 13.34 5.02 12.68 4 12 C3.70703125 9.6171875 3.70703125 9.6171875 3.8125 6.875 C3.85310547 5.50988281 3.85310547 5.50988281 3.89453125 4.1171875 C3.92933594 3.41851562 3.96414062 2.71984375 4 2 C3.01 2.33 2.02 2.66 1 3 C1 3.66 1 4.32 1 5 C1.99 5.33 2.98 5.66 4 6 C3.67 8.31 3.34 10.62 3 13 C-0.875 12.125 -0.875 12.125 -2 11 C-2.23961213 6.76685233 -2.32488647 3.63263511 0 0 Z " fill="#131213" transform="translate(151,116)"/>
<path d="M0 0 C0.99 0 1.98 0 3 0 C3.66 0.99 4.32 1.98 5 3 C4.171875 5.63671875 4.171875 5.63671875 2.75 8.6875 C0.62271388 13.45795361 -0.9209437 17.89900656 -2 23 C-2.33 23 -2.66 23 -3 23 C-3.433422 14.84524526 -2.29370226 7.82316305 0 0 Z " fill="#A87F3A" transform="translate(88,78)"/>
<path d="M0 0 C0.66 0.99 1.32 1.98 2 3 C2.33 2.01 2.66 1.02 3 0 C3.66 0 4.32 0 5 0 C4.79503906 0.89460938 4.59007812 1.78921875 4.37890625 2.7109375 C2.79844445 9.80411057 1.48479039 16.74486111 1 24 C0.34 24 -0.32 24 -1 24 C-1.02887236 20.18751574 -1.04675492 16.3750593 -1.0625 12.5625 C-1.07087891 11.47388672 -1.07925781 10.38527344 -1.08789062 9.26367188 C-1.09111328 8.22919922 -1.09433594 7.19472656 -1.09765625 6.12890625 C-1.10289307 5.17056885 -1.10812988 4.21223145 -1.11352539 3.22485352 C-1 1 -1 1 0 0 Z " fill="#9A783E" transform="translate(134,85)"/>
<path d="M0 0 C0 0.33 0 0.66 0 1 C-0.845625 1.17015625 -1.69125 1.3403125 -2.5625 1.515625 C-13.75871696 3.90754408 -21.70091604 6.79904205 -29 16 C-30.2240564 18.64050312 -30.2240564 18.64050312 -31 21 C-31.99 21 -32.98 21 -34 21 C-31.23259311 12.44619688 -24.32999555 6.78535251 -16.578125 2.734375 C-10.82504414 0.19730208 -6.26012876 -0.40387927 0 0 Z " fill="#936E3B" transform="translate(178,35)"/>
<path d="M0 0 C0.33 0 0.66 0 1 0 C1.33 4.62 1.66 9.24 2 14 C5.9714169 13.37158027 5.9714169 13.37158027 8 11 C7.88490339 12.41750563 7.75746342 13.83401169 7.625 15.25 C7.55539063 16.03890625 7.48578125 16.8278125 7.4140625 17.640625 C6.98492887 20.085877 6.21399362 21.84836903 5 24 C4.690625 23.360625 4.38125 22.72125 4.0625 22.0625 C3.1654837 20.06389179 3.1654837 20.06389179 2 19 C1.67 20.65 1.34 22.3 1 24 C0.67 24 0.34 24 0 24 C0 16.08 0 8.16 0 0 Z " fill="#D8A945" transform="translate(235,169)"/>
<path d="M0 0 C0 3 0 3 -1.3203125 4.5 C-6.92133592 9.15539609 -11.39495505 12.5432175 -19 12 C-15.54563567 8.40746109 -11.80635497 5.20760251 -8 2 C-7.34 2.33 -6.68 2.66 -6 3 C-6.99 4.32 -7.98 5.64 -9 7 C-7.68677212 6.02180976 -6.37443848 5.0424189 -5.0625 4.0625 C-4.33160156 3.51722656 -3.60070312 2.97195312 -2.84765625 2.41015625 C-1.0865547 1.13092062 -1.0865547 1.13092062 0 0 Z " fill="#BF9F53" transform="translate(228,221)"/>
<path d="M0 0 C0.97001953 0.00451172 1.94003906 0.00902344 2.93945312 0.01367188 C5.3138676 0.0253685 7.68815021 0.04175914 10.0625 0.0625 C9.7325 1.3825 9.4025 2.7025 9.0625 4.0625 C7.7425 3.0725 6.4225 2.0825 5.0625 1.0625 C4.7325 1.7225 4.4025 2.3825 4.0625 3.0625 C-3.1975 3.0625 -10.4575 3.0625 -17.9375 3.0625 C-17.9375 2.4025 -17.9375 1.7425 -17.9375 1.0625 C-11.92889451 0.00411873 -6.09122439 -0.05412571 0 0 Z " fill="#BF9640" transform="translate(93.9375,147.9375)"/>
<path d="M0 0 C3.07378101 2.58477039 5.74742744 5.11702506 7 9 C6.70814606 10.34302277 6.37901884 11.6789271 6 13 C5.73445313 12.44570312 5.46890625 11.89140625 5.1953125 11.3203125 C4.84210938 10.59585938 4.48890625 9.87140625 4.125 9.125 C3.77695313 8.40570313 3.42890625 7.68640625 3.0703125 6.9453125 C2.03442457 4.84864981 2.03442457 4.84864981 0 3 C-3.693507 2.79853598 -6.47940432 2.82646811 -10 4 C-10.71706982 5.98248715 -11.38290413 7.98415349 -12 10 C-12.66 10.66 -13.32 11.32 -14 12 C-13.59709958 6.35939411 -11.78085674 3.96528877 -8 0 C-4.99054157 -1.50472922 -3.20590237 -0.88005163 0 0 Z " fill="#B89350" transform="translate(115,96)"/>
<path d="M0 0 C1.6415049 3.2830098 0.51888624 6.42545033 0 10 C1.32 10 2.64 10 4 10 C4 9.34 4 8.68 4 8 C4.66 8.33 5.32 8.66 6 9 C5.21654285 10.17219543 4.42297164 11.33763668 3.625 12.5 C3.18414062 13.1496875 2.74328125 13.799375 2.2890625 14.46875 C1.65097656 15.22671875 1.65097656 15.22671875 1 16 C0.34 16 -0.32 16 -1 16 C-1 16.66 -1 17.32 -1 18 C-1.99 18 -2.98 18 -4 18 C-2.64974619 2.64974619 -2.64974619 2.64974619 0 0 Z " fill="#BD8B31" transform="translate(143,56)"/>
<path d="M0 0 C1.32 0.66 2.64 1.32 4 2 C4 2.66 4 3.32 4 4 C4.66 4 5.32 4 6 4 C6 4.99 6 5.98 6 7 C6.66 7 7.32 7 8 7 C8.33 7.99 8.66 8.98 9 10 C4.38 9.01 -0.24 8.02 -5 7 C-4.34 6.67 -3.68 6.34 -3 6 C-3 4.68 -3 3.36 -3 2 C-2.01 1.34 -1.02 0.68 0 0 Z " fill="#3E270F" transform="translate(179,28)"/>
<path d="M0 0 C-0.33 0.66 -0.66 1.32 -1 2 C-8.59723357 3.53684496 -17.30144729 3.66894641 -25 3 C-25.66 2.34 -26.32 1.68 -27 1 C-18.02243049 -0.3300103 -9.05168034 -0.08788039 0 0 Z " fill="#D0B371" transform="translate(100,112)"/>
<path d="M0 0 C3.19497798 1.02919459 6.08127095 2.34900175 9 4 C9 4.99 9 5.98 9 7 C9.66 7 10.32 7 11 7 C10.67 7.66 10.34 8.32 10 9 C9.278125 8.38125 8.55625 7.7625 7.8125 7.125 C2.00484591 2.73699469 -2.91811578 2.59366238 -10 3 C-12.93471013 3.41519114 -12.93471013 3.41519114 -15 4 C-15 3.34 -15 2.68 -15 2 C-10.30992788 -1.12671475 -5.49211549 -0.5831135 0 0 Z " fill="#967030" transform="translate(119,64)"/>
<path d="M0 0 C1.77706209 2.66559313 2.87548273 5.0280615 4 8 C5.65 8 7.3 8 9 8 C9 8.66 9 9.32 9 10 C7.02 10 5.04 10 3 10 C2.67 11.98 2.34 13.96 2 16 C0.35 14.35 -1.3 12.7 -3 11 C-2.67 10.01 -2.34 9.02 -2 8 C-2 8.66 -2 9.32 -2 10 C-1.34 9.67 -0.68 9.34 0 9 C0 6.03 0 3.06 0 0 Z " fill="#AC7E2F" transform="translate(191,195)"/>
<path d="M0 0 C0.66 0.33 1.32 0.66 2 1 C2 1.99 2 2.98 2 4 C3.65 4.33 5.3 4.66 7 5 C7 5.33 7 5.66 7 6 C6.05125 6.2475 5.1025 6.495 4.125 6.75 C0.56440032 8.17423987 0.48257341 8.71715887 -1 12 C-3.0546875 12.62109375 -3.0546875 12.62109375 -5 13 C-4.74379316 11.3934324 -4.46944129 9.7897517 -4.1875 8.1875 C-4.03667969 7.29417969 -3.88585937 6.40085938 -3.73046875 5.48046875 C-2.94604607 2.81678744 -2.11372201 1.74309678 0 0 Z " fill="#E8C060" transform="translate(193,172)"/>
<path d="M0 0 C1.32 0.33 2.64 0.66 4 1 C3.4140625 7.15234375 3.4140625 7.15234375 3 9 C2.01 9.495 2.01 9.495 1 10 C1.875 5.25 1.875 5.25 3 3 C1.02 3.99 1.02 3.99 -1 5 C-1.020625 6.27875 -1.04125 7.5575 -1.0625 8.875 C-1.07410156 9.59429687 -1.08570313 10.31359375 -1.09765625 11.0546875 C-1.12649242 13.08185404 -1.12649242 13.08185404 0 15 C2.02463255 15.65213292 2.02463255 15.65213292 4 16 C4 16.66 4 17.32 4 18 C2.35 18 0.7 18 -1 18 C-2.80116392 14.89998878 -3.2961501 12.57517903 -3.3125 9 C-3.32925781 8.154375 -3.34601563 7.30875 -3.36328125 6.4375 C-2.93244007 3.54669465 -1.90529726 2.17173725 0 0 Z " fill="#060607" transform="translate(179,136)"/>
<path d="M0 0 C3.50189899 1.89291837 5.99124061 3.51110211 8 7 C8 8.32 8 9.64 8 11 C6.35 10.67 4.7 10.34 3 10 C2.67 10.99 2.34 11.98 2 13 C2 12.34 2 11.68 2 11 C1.34 11 0.68 11 0 11 C-0.33 9.68 -0.66 8.36 -1 7 C-0.01 6.67 0.98 6.34 2 6 C1.34 4.02 0.68 2.04 0 0 Z " fill="#D09830" transform="translate(128,60)"/>
<path d="M0 0 C-0.99 1.485 -0.99 1.485 -2 3 C-4.89665312 3.27629614 -7.54649175 3.37218225 -10.4375 3.3125 C-11.21416016 3.31572266 -11.99082031 3.31894531 -12.79101562 3.32226562 C-16.68867345 3.28533691 -18.69260709 3.20492861 -22 1 C-14.63959083 0.20274098 -7.40239645 -0.12886183 0 0 Z " fill="#B28436" transform="translate(68,116)"/>
<path d="M0 0 C0.66 0 1.32 0 2 0 C2.04898438 0.59167969 2.09796875 1.18335938 2.1484375 1.79296875 C2.57024999 6.25109045 3.23980169 9.85096113 5 14 C4.67 14.66 4.34 15.32 4 16 C5.32 16 6.64 16 8 16 C8 16.66 8 17.32 8 18 C5.6875 17.8125 5.6875 17.8125 3 17 C0.07777172 13.1955896 -0.34347858 10.41885022 -0.1875 5.6875 C-0.16042969 4.61886719 -0.13335937 3.55023438 -0.10546875 2.44921875 C-0.07066406 1.64097656 -0.03585938 0.83273438 0 0 Z " fill="#1E120B" transform="translate(149,146)"/>
<path d="M0 0 C0.66 0.99 1.32 1.98 2 3 C2.66 2.34 3.32 1.68 4 1 C4.99 1 5.98 1 7 1 C7.38063221 3.3260857 7.71269945 5.66055264 8 8 C7 9 7 9 3.9375 9.0625 C2.968125 9.041875 1.99875 9.02125 1 9 C0.63877119 7.68942607 0.28619689 6.37646376 -0.0625 5.0625 C-0.35833984 3.96615234 -0.35833984 3.96615234 -0.66015625 2.84765625 C-0.77230469 2.23792969 -0.88445312 1.62820312 -1 1 C-0.67 0.67 -0.34 0.34 0 0 Z " fill="#221D17" transform="translate(115,138)"/>
<path d="M0 0 C1.4323356 2.8646712 0.57861549 4.91405073 0 8 C0 8.66 0 9.32 0 10 C0.66 10.33 1.32 10.66 2 11 C1.01 11.66 0.02 12.32 -1 13 C-1 11.68 -1 10.36 -1 9 C-1.99 9.33 -2.98 9.66 -4 10 C-4.66 10 -5.32 10 -6 10 C-6.33 10.66 -6.66 11.32 -7 12 C-7.66 11.67 -8.32 11.34 -9 11 C-6.62245212 6.50907623 -3.6393937 3.47764287 0 0 Z " fill="#F4C450" transform="translate(156,43)"/>
<path d="M0 0 C2 0 2 0 3.625 1.375 C5 3 5 3 5 5 C8.63 5 12.26 5 16 5 C16 5.33 16 5.66 16 6 C13.70839681 6.02692484 11.41670454 6.04636124 9.125 6.0625 C7.84882812 6.07410156 6.57265625 6.08570312 5.2578125 6.09765625 C2 6 2 6 0 5 C0 5.66 0 6.32 0 7 C-2.31 7 -4.62 7 -7 7 C-7 6.67 -7 6.34 -7 6 C-5.35 6 -3.7 6 -2 6 C-1.855625 5.38125 -1.71125 4.7625 -1.5625 4.125 C-1 2 -1 2 0 0 Z " fill="#453117" transform="translate(29,110)"/>
<path d="M0 0 C2 3.75 2 3.75 2 6 C2.66 6 3.32 6 4 6 C4 7.32 4 8.64 4 10 C4.66 10 5.32 10 6 10 C5.34 12.31 4.68 14.62 4 17 C3.34 17 2.68 17 2 17 C2 18.65 2 20.3 2 22 C1.67 22 1.34 22 1 22 C1.01160156 21.0821875 1.02320313 20.164375 1.03515625 19.21875 C1.08301493 12.70996973 1.02900697 6.43129355 0 0 Z " fill="#7E591D" transform="translate(242,158)"/>
<path d="M0 0 C-2 2 -2 2 -4.24658203 2.22705078 C-5.15778809 2.21657715 -6.06899414 2.20610352 -7.0078125 2.1953125 C-7.99394531 2.18886719 -8.98007812 2.18242188 -9.99609375 2.17578125 C-11.54490234 2.15064453 -11.54490234 2.15064453 -13.125 2.125 C-14.16527344 2.11597656 -15.20554687 2.10695313 -16.27734375 2.09765625 C-18.85179092 2.07403747 -21.42578212 2.04110149 -24 2 C-17.19363966 -2.53757356 -7.77874092 -1.0967856 0 0 Z " fill="#DCCF99" transform="translate(39,117)"/>
<path d="M0 0 C1.75 0.125 1.75 0.125 4 1 C6.25 4.0625 6.25 4.0625 8 7 C11.60992379 6.34414811 11.60992379 6.34414811 15 5 C14.34 6.32 13.68 7.64 13 9 C10.25 9.375 10.25 9.375 7 9 C4.75 6.0625 4.75 6.0625 3 3 C2.34 2.67 1.68 2.34 1 2 C1.33 2.53625 1.66 3.0725 2 3.625 C3.22699204 6.5391061 3.14233286 8.86867708 3 12 C1 11 1 11 0.375 9.375 C-0.12095645 6.2339425 -0.06103811 3.17398169 0 0 Z " fill="#C2A45E" transform="translate(145,156)"/>
<path d="M0 0 C0.33 1.32 0.66 2.64 1 4 C2.32 3.34 3.64 2.68 5 2 C6.42944945 4.35438733 7.08661261 5.48032433 6.625 8.25 C6.41875 8.8275 6.2125 9.405 6 10 C5.67 9.34 5.34 8.68 5 8 C1.97065509 7.34227572 1.97065509 7.34227572 -1 7 C-1.33 8.32 -1.66 9.64 -2 11 C-2.28571429 3.57142857 -2.28571429 3.57142857 0 0 Z " fill="#DCAE46" transform="translate(235,148)"/>
<path d="M0 0 C2 3 2 3 2 7 C-3.75 6.25 -3.75 6.25 -6 4 C-9.01305957 4.38878188 -10.39685311 5.26456874 -13 7 C-11.125 3.125 -11.125 3.125 -10 2 C-8.48071962 1.92820036 -6.95832518 1.91607993 -5.4375 1.9375 C-4.61121094 1.94652344 -3.78492188 1.95554688 -2.93359375 1.96484375 C-2.29550781 1.97644531 -1.65742188 1.98804688 -1 2 C-0.67 1.34 -0.34 0.68 0 0 Z " fill="#BE9847" transform="translate(205,176)"/>
<path d="M0 0 C1.15518918 0.90484792 2.29885406 1.8244206 3.4375 2.75 C4.07558594 3.26046875 4.71367188 3.7709375 5.37109375 4.296875 C7.18810554 6.19667629 7.60423197 7.43586908 8 10 C7.01 10 6.02 10 5 10 C5 9.34 5 8.68 5 8 C4.01 7.67 3.02 7.34 2 7 C2 6.34 2 5.68 2 5 C1.34 5 0.68 5 0 5 C-0.66 6.98 -1.32 8.96 -2 11 C-2.95465783 8.83032311 -3.14401212 7.43671207 -2.3984375 5.17578125 C-1.64129615 3.4315257 -0.82390802 1.71372869 0 0 Z " fill="#271A0D" transform="translate(29,105)"/>
<path d="M0 0 C6.27 0 12.54 0 19 0 C19 0.33 19 0.66 19 1 C14.71 1 10.42 1 6 1 C6 1.99 6 2.98 6 4 C4 5.6875 4 5.6875 2 7 C0.5393715 4.35261084 0 3.10551666 0 0 Z " fill="#543C19" transform="translate(27,120)"/>
<path d="M0 0 C1.04271083 3.38881018 1.07512958 6.46890967 1 10 C1 10.99 1 11.98 1 13 C-0.3125 15.1875 -0.3125 15.1875 -2 17 C-2.99 17 -3.98 17 -5 17 C-4.80664062 16.35933594 -4.61328125 15.71867188 -4.4140625 15.05859375 C-2.9059252 10.04889015 -1.42282214 5.03460143 0 0 Z " fill="#A2752F" transform="translate(232,196)"/>
<path d="M0 0 C3.84345809 1.45786341 5.15079935 3.38965588 7 7 C7.33 7.99 7.66 8.98 8 10 C6.02 10 4.04 10 2 10 C1.855625 8.906875 1.71125 7.81375 1.5625 6.6875 C1.11711896 3.06877013 1.11711896 3.06877013 0 0 Z " fill="#F8E79A" transform="translate(146,158)"/>
<path d="M0 0 C0 0.33 0 0.66 0 1 C-2.64 1.33 -5.28 1.66 -8 2 C-7.67 2.66 -7.34 3.32 -7 4 C-8.65 4 -10.3 4 -12 4 C-12 3.34 -12 2.68 -12 2 C-16.95 2 -21.9 2 -27 2 C-27 1.67 -27 1.34 -27 1 C-17.97859571 0.24258075 -9.05293337 -0.13534286 0 0 Z " fill="#BD9247" transform="translate(75,149)"/>
<path d="M0 0 C0.33 0 0.66 0 1 0 C1.165 0.845625 1.33 1.69125 1.5 2.5625 C3.31033175 6.71117692 5.58642106 8.43909348 9.01953125 11.265625 C11.72341303 13.63352147 13.33602998 15.816753 15 19 C14.67 19.99 14.34 20.98 14 22 C13.49210938 21.26394531 12.98421875 20.52789062 12.4609375 19.76953125 C8.11322781 13.38791912 8.11322781 13.38791912 2.5 8.1875 C0 6 0 6 -0.375 2.6875 C-0.25125 1.800625 -0.1275 0.91375 0 0 Z " fill="#D8BF7C" transform="translate(217,108)"/>
<path d="M0 0 C2.0947497 6.2842491 -2.39424725 12.96275633 -5.1875 18.5625 C-6.11907546 20.37805217 -7.05451801 22.19165095 -8 24 C-8.33 23.34 -8.66 22.68 -9 22 C-8.07238107 19.60771961 -7.08184492 17.3220086 -6 15 C-3.75226182 10.05840767 -1.59991961 5.19973873 0 0 Z " fill="#B28236" transform="translate(240,195)"/>
<path d="M0 0 C0.99 0 1.98 0 3 0 C4.58877287 3.17754575 4 6.49382922 4 10 C4.33 10.66 4.66 11.32 5 12 C4.05125 12.309375 3.1025 12.61875 2.125 12.9375 C-0.86080408 13.87394742 -0.86080408 13.87394742 -3 15 C-2.67 13.35 -2.34 11.7 -2 10 C-0.02 10.495 -0.02 10.495 2 11 C2 8.69 2 6.38 2 4 C1.01 4 0.02 4 -1 4 C-0.67 2.68 -0.34 1.36 0 0 Z " fill="#343028" transform="translate(152,118)"/>
<path d="M0 0 C0.99 0.99 1.98 1.98 3 3 C3.33 2.67 3.66 2.34 4 2 C5.32 2 6.64 2 8 2 C7.34 3.32 6.68 4.64 6 6 C5.34 6 4.68 6 4 6 C4 6.66 4 7.32 4 8 C2.35 8.33 0.7 8.66 -1 9 C-0.67 6.03 -0.34 3.06 0 0 Z " fill="#DEA82C" transform="translate(143,58)"/>
<path d="M0 0 C0.66 0.33 1.32 0.66 2 1 C2 6.94 2 12.88 2 19 C1.67 19 1.34 19 1 19 C1 17.02 1 15.04 1 13 C0.01 13 -0.98 13 -2 13 C-1.84660156 12.43796875 -1.69320312 11.8759375 -1.53515625 11.296875 C-0.98639581 8.94161122 -0.68502401 6.65451896 -0.4375 4.25 C-0.35371094 3.45078125 -0.26992187 2.6515625 -0.18359375 1.828125 C-0.12300781 1.22484375 -0.06242188 0.6215625 0 0 Z " fill="#CDA44B" transform="translate(165,141)"/>
<path d="M0 0 C0.66 0.99 1.32 1.98 2 3 C-10.87 2.505 -10.87 2.505 -24 2 C-24 1.67 -24 1.34 -24 1 C-5.44400631 -0.36908517 -5.44400631 -0.36908517 0 0 Z " fill="#A29364" transform="translate(81,120)"/>
<path d="M0 0 C0.66 0 1.32 0 2 0 C3.125 6.75 3.125 6.75 2 9 C1.01 9 0.02 9 -1 9 C-1.625 5.625 -1.625 5.625 -2 2 C-1.34 1.34 -0.68 0.68 0 0 Z " fill="#131315" transform="translate(188,148)"/>
<path d="M0 0 C1.32 0 2.64 0 4 0 C5.80230168 3.82989106 6.19622241 6.78121808 6 11 C5.67 11 5.34 11 5 11 C4.34 8.69 3.68 6.38 3 4 C2.01 4 1.02 4 0 4 C-0.99 7.465 -0.99 7.465 -2 11 C-2.33 11 -2.66 11 -3 11 C-2.88590407 9.54077307 -2.75834456 8.08259402 -2.625 6.625 C-2.55539063 5.81289062 -2.48578125 5.00078125 -2.4140625 4.1640625 C-2 2 -2 2 0 0 Z " fill="#070708" transform="translate(100,136)"/>
<path d="M0 0 C0.33 0 0.66 0 1 0 C1 2.97 1 5.94 1 9 C-1.12368444 9.22134176 -3.24904024 9.42670007 -5.375 9.625 C-7.15003906 9.79902344 -7.15003906 9.79902344 -8.9609375 9.9765625 C-9.96382812 9.98429687 -10.96671875 9.99203125 -12 10 C-12.66 9.34 -13.32 8.68 -14 8 C-10.85069107 6.95023036 -8.61185544 6.89868405 -5.3125 6.9375 C-4.31863281 6.94652344 -3.32476562 6.95554687 -2.30078125 6.96484375 C-1.16189453 6.98224609 -1.16189453 6.98224609 0 7 C0 4.69 0 2.38 0 0 Z " fill="#CDAC70" transform="translate(211,102)"/>
<path d="M0 0 C2.875 -0.1875 2.875 -0.1875 6 0 C8 3 8 3 7.625 5.1875 C7.41875 5.785625 7.2125 6.38375 7 7 C7 6.01 7 5.02 7 4 C5.02 4 3.04 4 1 4 C0.67 4.99 0.34 5.98 0 7 C0 4.69 0 2.38 0 0 Z " fill="#EDD074" transform="translate(234,155)"/>
<path d="M0 0 C4.55555556 0.55555556 4.55555556 0.55555556 6 2 C6.47323944 8.38873239 6.47323944 8.38873239 4.5 10.9375 C4.005 11.288125 3.51 11.63875 3 12 C3.33 9.36 3.66 6.72 4 4 C2.68 3.67 1.36 3.34 0 3 C-0.99 4.32 -1.98 5.64 -3 7 C-2.25 2.25 -2.25 2.25 0 0 Z " fill="#202022" transform="translate(87,134)"/>
<path d="M0 0 C2.0625 0.4375 2.0625 0.4375 4 1 C2.02 1.99 2.02 1.99 0 3 C1.98 3.66 3.96 4.32 6 5 C6 5.33 6 5.66 6 6 C2.04 6 -1.92 6 -6 6 C-4 4 -2 2 0 0 Z " fill="#DCC685" transform="translate(195,111)"/>
<path d="M0 0 C1.08667969 0.01804688 2.17335938 0.03609375 3.29296875 0.0546875 C4.54013672 0.08949219 4.54013672 0.08949219 5.8125 0.125 C5.8125 0.785 5.8125 1.445 5.8125 2.125 C5.06484375 2.17398438 4.3171875 2.22296875 3.546875 2.2734375 C2.56203125 2.34820312 1.5771875 2.42296875 0.5625 2.5 C-0.89929688 2.60441406 -0.89929688 2.60441406 -2.390625 2.7109375 C-5.08383189 3.10965249 -6.85713279 3.76007063 -9.1875 5.125 C-9.1875 4.135 -9.1875 3.145 -9.1875 2.125 C-5.66070901 -0.22619399 -4.15870515 -0.08943452 0 0 Z " fill="#E6B037" transform="translate(115.1875,56.875)"/>
<path d="M0 0 C0.33 0 0.66 0 1 0 C1.19456705 1.95764383 1.38044247 3.91615321 1.5625 5.875 C1.66691406 6.96554688 1.77132812 8.05609375 1.87890625 9.1796875 C2 12 2 12 1 14 C0.01 14 -0.98 14 -2 14 C-1.85970581 11.8537974 -1.71261836 9.70803782 -1.5625 7.5625 C-1.48128906 6.36753906 -1.40007812 5.17257813 -1.31640625 3.94140625 C-1 1 -1 1 0 0 Z " fill="#B7832B" transform="translate(120,113)"/>
<path d="M0 0 C4.04648443 1.34882814 4.95502599 3.34826069 7 7 C6.67 7.99 6.34 8.98 6 10 C4.125 9.5 4.125 9.5 2 8 C1.01505446 5.34822355 0.54087618 2.79452693 0 0 Z " fill="#2C1E0B" transform="translate(241,152)"/>
<path d="M0 0 C2.4375 0.6875 2.4375 0.6875 5 2 C5.8125 4.625 5.8125 4.625 6 7 C3.69 6.67 1.38 6.34 -1 6 C-1.625 4.125 -1.625 4.125 -2 2 C-1.34 1.34 -0.68 0.68 0 0 Z " fill="#BF9338" transform="translate(160,134)"/>
<path d="M0 0 C1.9375 0.375 1.9375 0.375 4 1 C5.59412284 4.18824568 5.10174735 7.62896662 5.0625 11.125 C5.05798828 11.87910156 5.05347656 12.63320312 5.04882812 13.41015625 C5.03703499 15.27347127 5.01909942 17.13674555 5 19 C4.67 19 4.34 19 4 19 C3.67 13.72 3.34 8.44 3 3 C1.68 3 0.36 3 -1 3 C-0.67 2.01 -0.34 1.02 0 0 Z " fill="#0A070A" transform="translate(166,136)"/>
<path d="M0 0 C2.0625 0.4375 2.0625 0.4375 4 1 C4.80967438 3.91482778 5.21845993 5.46113217 4.0625 8.3125 C3.5365625 9.1478125 3.5365625 9.1478125 3 10 C2.34 10 1.68 10 1 10 C1.66 7.69 2.32 5.38 3 3 C-0.0745356 3.7763932 -0.0745356 3.7763932 -2 6 C-1.125 1.125 -1.125 1.125 0 0 Z " fill="#070709" transform="translate(87,136)"/>
<path d="M0 0 C0.66 0.33 1.32 0.66 2 1 C-0.75 4.875 -0.75 4.875 -3 6 C-3 6.66 -3 7.32 -3 8 C-3.66 8 -4.32 8 -5 8 C-5.66 9.65 -6.32 11.3 -7 13 C-7.66 13 -8.32 13 -9 13 C-7.47987323 7.59510481 -3.72614782 4.01507372 0 0 Z " fill="#1B0F09" transform="translate(101,70)"/>
<path d="M0 0 C0.33 0 0.66 0 1 0 C0.67 2.97 0.34 5.94 0 9 C-1.65 9 -3.3 9 -5 9 C-5.33 9.66 -5.66 10.32 -6 11 C-6 9.02 -6 7.04 -6 5 C-4.02 5 -2.04 5 0 5 C0 3.35 0 1.7 0 0 Z " fill="#EDC65F" transform="translate(242,174)"/>
<path d="M0 0 C0 0.99 0 1.98 0 3 C-0.99 3.495 -0.99 3.495 -2 4 C-2.65213292 6.02463255 -2.65213292 6.02463255 -3 8 C-4.32 7.67 -5.64 7.34 -7 7 C-7 4 -7 4 -5.1875 1.8125 C-3 0 -3 0 0 0 Z " fill="#F9EA9A" transform="translate(164,162)"/>
<path d="M0 0 C0 2.97 0 5.94 0 9 C-1.32 9 -2.64 9 -4 9 C-4.368 3.48 -4.368 3.48 -2.5625 1.125 C-1 0 -1 0 0 0 Z " fill="#020203" transform="translate(69,139)"/>
<path d="M0 0 C1.13643966 3.40931897 0.86747764 4.00335456 -0.4375 7.1875 C-0.72496094 7.90292969 -1.01242188 8.61835937 -1.30859375 9.35546875 C-1.53675781 9.89816406 -1.76492187 10.44085938 -2 11 C-2.99 11 -3.98 11 -5 11 C-4.67 8.69 -4.34 6.38 -4 4 C-3.01 3.67 -2.02 3.34 -1 3 C-0.67 2.01 -0.34 1.02 0 0 Z " fill="#130E04" transform="translate(28,105)"/>
<path d="M0 0 C0.33 0 0.66 0 1 0 C1.144375 1.051875 1.28875 2.10375 1.4375 3.1875 C1.90034298 6.85032185 1.90034298 6.85032185 2.75 9.75 C3 12 3 12 1.5625 13.8125 C1.046875 14.204375 0.53125 14.59625 0 15 C-1.5111995 9.96266834 -0.64599773 5.11828973 0 0 Z " fill="#D39E2F" transform="translate(205,189)"/>
<path d="M0 0 C0.66 0.33 1.32 0.66 2 1 C2 1.66 2 2.32 2 3 C1.21625 3.144375 0.4325 3.28875 -0.375 3.4375 C-3.15156763 4.71536857 -3.15156763 4.71536857 -3.77734375 7.13671875 C-4.26835609 9.41974691 -4.68112401 11.68695927 -5 14 C-5.33 14 -5.66 14 -6 14 C-6.44680851 5.21276596 -6.44680851 5.21276596 -3 1 C-2.01 0.67 -1.02 0.34 0 0 Z " fill="#24221E" transform="translate(102,133)"/>
<path d="M0 0 C0.33 0.66 0.66 1.32 1 2 C1.66 2.33 2.32 2.66 3 3 C1.8803014 4.00593243 0.7540588 5.0045849 -0.375 6 C-1.00148437 6.556875 -1.62796875 7.11375 -2.2734375 7.6875 C-4 9 -4 9 -6 9 C-5.1875 7.0625 -5.1875 7.0625 -4 5 C-3.01 4.67 -2.02 4.34 -1 4 C-0.26676204 1.98491642 -0.26676204 1.98491642 0 0 Z " fill="#B78026" transform="translate(225,219)"/>
<path d="M0 0 C1.53445094 3.06890187 0.54984289 5.70094266 0 9 C0.66 9 1.32 9 2 9 C1.67 11.64 1.34 14.28 1 17 C0.67 17 0.34 17 0 17 C0 15.35 0 13.7 0 12 C-0.66 12 -1.32 12 -2 12 C-2.17835515 7.45194365 -1.99785435 4.1205746 0 0 Z " fill="#CA9C42" transform="translate(189,175)"/>
<path d="M0 0 C2.00800456 -0.28112064 4.01014051 -0.61067967 6 -1 C6 -0.01 6 0.98 6 2 C2.04 2 -1.92 2 -6 2 C-6 1.34 -6 0.68 -6 0 C-2.25 -1.125 -2.25 -1.125 0 0 Z " fill="#DDAB3B" transform="translate(132,150)"/>
<path d="M0 0 C1.5 1.25 1.5 1.25 3 3 C3 4.32 3 5.64 3 7 C1.35 7 -0.3 7 -2 7 C-1.125 1.125 -1.125 1.125 0 0 Z " fill="#070505" transform="translate(101,140)"/>
<path d="M0 0 C0.66 0.33 1.32 0.66 2 1 C-0.8689341 4.50647501 -3.7317654 7.85281112 -7 11 C-7.33 10.01 -7.66 9.02 -8 8 C-5.75155529 4.6689708 -3.31729166 2.25101934 0 0 Z " fill="#B08035" transform="translate(103,58)"/>
<path d="M0 0 C0.66 0.66 1.32 1.32 2 2 C-1.33333333 5.33333333 -4.66666667 8.66666667 -8 12 C-8.99 11.67 -9.98 11.34 -11 11 C-10.45730469 10.54109375 -9.91460937 10.0821875 -9.35546875 9.609375 C-8.64003906 8.99578125 -7.92460937 8.3821875 -7.1875 7.75 C-6.47980469 7.14671875 -5.77210938 6.5434375 -5.04296875 5.921875 C-3.08110329 4.07629602 -1.54330375 2.20054668 0 0 Z " fill="#211409" transform="translate(232,218)"/>
<path d="M0 0 C0.33 0.99 0.66 1.98 1 3 C-0.4375 5.1875 -0.4375 5.1875 -2 7 C-2 6.34 -2 5.68 -2 5 C-3.32 4.67 -4.64 4.34 -6 4 C-5.67 3.01 -5.34 2.02 -5 1 C-3 0 -3 0 0 0 Z " fill="#C18A2C" transform="translate(232,212)"/>
<path d="M0 0 C0.66 1.32 1.32 2.64 2 4 C4.05000871 4.80528889 4.05000871 4.80528889 6 5 C6 5.66 6 6.32 6 7 C4.68 7.33 3.36 7.66 2 8 C1.67 9.98 1.34 11.96 1 14 C0.67 14 0.34 14 0 14 C0 9.38 0 4.76 0 0 Z " fill="#040505" transform="translate(140,131)"/>
<path d="M0 0 C-1.30986273 1.16962686 -2.6229626 2.33562944 -3.9375 3.5 C-4.66839844 4.1496875 -5.39929688 4.799375 -6.15234375 5.46875 C-8 7 -8 7 -9 7 C-9 5.35 -9 3.7 -9 2 C-8.01 2 -7.02 2 -6 2 C-6 1.34 -6 0.68 -6 0 C-3 -1 -3 -1 0 0 Z " fill="#B58737" transform="translate(104,69)"/>
<path d="M0 0 C0 3 0 3 -1.35546875 4.60546875 C-6.34806732 8.91677455 -6.34806732 8.91677455 -9.9375 9.375 C-10.618125 9.25125 -11.29875 9.1275 -12 9 C-10.26675321 6.99308266 -9.06807731 6.02618358 -6.5625 5.0625 C-3.64854843 3.85427618 -2.09261228 2.32512475 0 0 Z " fill="#C9A046" transform="translate(228,221)"/>
<path d="M0 0 C0.66 0.33 1.32 0.66 2 1 C-4 7 -4 7 -6.5625 7.0625 C-7.7690625 7.0315625 -7.7690625 7.0315625 -9 7 C-8.01 6.67 -7.02 6.34 -6 6 C-5.67 5.01 -5.34 4.02 -5 3 C-3.35 2.67 -1.7 2.34 0 2 C0 1.34 0 0.68 0 0 Z " fill="#B08D40" transform="translate(118,133)"/>
<path d="M0 0 C1.32 0.33 2.64 0.66 4 1 C3.50639991 5.27786748 2.95216435 8.09567131 1 12 C0.67 8.04 0.34 4.08 0 0 Z " fill="#A46D25" transform="translate(134,80)"/>
<path d="M0 0 C2.29013653 3.4352048 2.17842973 4.985331 2 9 C1.01 9.33 0.02 9.66 -1 10 C-2 9 -2 9 -2.0625 6.4375 C-2.041875 5.633125 -2.02125 4.82875 -2 4 C-1.34 4 -0.68 4 0 4 C0 2.68 0 1.36 0 0 Z " fill="#A67431" transform="translate(214,73)"/>
<path d="M0 0 C0.33 0 0.66 0 1 0 C1 2.64 1 5.28 1 8 C0.01 8 -0.98 8 -2 8 C-2.66 5.69 -3.32 3.38 -4 1 C-2.68 1.33 -1.36 1.66 0 2 C0 1.34 0 0.68 0 0 Z " fill="#DEAC48" transform="translate(207,181)"/>
<path d="M0 0 C0.66 0 1.32 0 2 0 C1.34 2.97 0.68 5.94 0 9 C-1.32 9.33 -2.64 9.66 -4 10 C-4 9.01 -4 8.02 -4 7 C-3.34 7 -2.68 7 -2 7 C-1.855625 6.21625 -1.71125 5.4325 -1.5625 4.625 C-1 2 -1 2 0 0 Z " fill="#4F3415" transform="translate(248,168)"/>
<path d="M0 0 C0 1.33333333 0 2.66666667 0 4 C-3.375 4.1875 -3.375 4.1875 -7 4 C-7.66 3.01 -8.32 2.02 -9 1 C-4.545 0.505 -4.545 0.505 0 0 Z " fill="#D5A543" transform="translate(75,149)"/>
<path d="M0 0 C2 3 2 3 1.75 6.0625 C1 9 1 9 -1 11 C-2.26264601 6.70700357 -1.62950412 4.12168689 0 0 Z " fill="#9C702B" transform="translate(88,78)"/>
<path d="M0 0 C2.125 0.375 2.125 0.375 4 1 C4 1.66 4 2.32 4 3 C2.02 3.33 0.04 3.66 -2 4 C-2 4.66 -2 5.32 -2 6 C-2.99 6 -3.98 6 -5 6 C-4.67 4.68 -4.34 3.36 -4 2 C-3.34 2 -2.68 2 -2 2 C-1.34 1.34 -0.68 0.68 0 0 Z " fill="#D39B2F" transform="translate(100,65)"/>
<path d="M0 0 C0.33 0.66 0.66 1.32 1 2 C1.66 2 2.32 2 3 2 C3 3.32 3 4.64 3 6 C0.36 5.67 -2.28 5.34 -5 5 C-4.01 4.67 -3.02 4.34 -2 4 C-2 3.01 -2 2.02 -2 1 C-1.34 0.67 -0.68 0.34 0 0 Z " fill="#65471C" transform="translate(179,30)"/>
<path d="M0 0 C0.33 0.66 0.66 1.32 1 2 C2.65 1.34 4.3 0.68 6 0 C4.98823563 3.40320742 4.35156418 4.75725331 1.375 6.8125 C0.59125 7.204375 -0.1925 7.59625 -1 8 C-0.67 5.36 -0.34 2.72 0 0 Z " fill="#1D0F08" transform="translate(244,181)"/>
<path d="M0 0 C0.99 0 1.98 0 3 0 C5 2 5 2 6 5 C4.02 5 2.04 5 0 5 C0 3.35 0 1.7 0 0 Z " fill="#F3D371" transform="translate(236,174)"/>
<path d="M0 0 C1.32 0 2.64 0 4 0 C4.33 1.98 4.66 3.96 5 6 C3.35 6 1.7 6 0 6 C0 4.02 0 2.04 0 0 Z " fill="#0A0905" transform="translate(111,140)"/>
<path d="M0 0 C0.66 0.33 1.32 0.66 2 1 C1.38125 1.556875 0.7625 2.11375 0.125 2.6875 C-2.06106379 5.06645178 -2.98785699 6.96357096 -4 10 C-4.99 10 -5.98 10 -7 10 C-5.6062718 5.56541027 -3.39417765 3.12621626 0 0 Z " fill="#AA823B" transform="translate(151,46)"/>
<path d="M0 0 C4.93872549 4.77941176 4.93872549 4.77941176 5.09765625 7.9453125 C5.06510417 9.96354167 5.03255208 11.98177083 5 14 C4.67 14 4.34 14 4 14 C3.89042969 13.36191406 3.78085938 12.72382813 3.66796875 12.06640625 C3.50941406 11.24011719 3.35085937 10.41382813 3.1875 9.5625 C2.96126953 8.32693359 2.96126953 8.32693359 2.73046875 7.06640625 C2.48941406 6.38449219 2.24835938 5.70257813 2 5 C1.01 4.67 0.02 4.34 -1 4 C-0.67 2.68 -0.34 1.36 0 0 Z " fill="#282522" transform="translate(120,132)"/>
<path d="M0 0 C0.33 0.66 0.66 1.32 1 2 C1.66 2 2.32 2 3 2 C3 1.34 3 0.68 3 0 C4.98 0.66 6.96 1.32 9 2 C8.34 2.66 7.68 3.32 7 4 C3.375 3.625 3.375 3.625 0 3 C0 2.01 0 1.02 0 0 Z " fill="#E4B753" transform="translate(106,151)"/>
<path d="M0 0 C4.03384128 2.07143201 5.92856799 3.96615872 8 8 C5.125 7.375 5.125 7.375 2 6 C0.625 2.875 0.625 2.875 0 0 Z " fill="#AB7E35" transform="translate(128,60)"/>
<path d="M0 0 C0.66 0 1.32 0 2 0 C2 0.66 2 1.32 2 2 C2.66 2 3.32 2 4 2 C3.67 2.66 3.34 3.32 3 4 C2.34 3.67 1.68 3.34 1 3 C1 3.66 1 4.32 1 5 C-1.31 5 -3.62 5 -6 5 C-6 4.67 -6 4.34 -6 4 C-4.35 4 -2.7 4 -1 4 C-0.67 2.68 -0.34 1.36 0 0 Z " fill="#59411A" transform="translate(28,112)"/>
<path d="M0 0 C1.32 0 2.64 0 4 0 C4.33 2.31 4.66 4.62 5 7 C4.01 6.67 3.02 6.34 2 6 C0.8125 2.9375 0.8125 2.9375 0 0 Z " fill="#B37E31" transform="translate(204,77)"/>
<path d="M0 0 C1.875 0.25 1.875 0.25 4 1 C5.3125 2.875 5.3125 2.875 6 5 C5.67 5.99 5.34 6.98 5 8 C5 7.34 5 6.68 5 6 C3.35 6.33 1.7 6.66 0 7 C0.33 6.34 0.66 5.68 1 5 C1.66 5 2.32 5 3 5 C2.01 3.35 1.02 1.7 0 0 Z " fill="#CA9632" transform="translate(124,58)"/>
<path d="M0 0 C1.39195915 4.17587745 -0.17676781 6.13474776 -2 10 C-2.99 10 -3.98 10 -5 10 C-3.66511872 6.40608886 -2.03977277 3.24509304 0 0 Z " fill="#B38A3D" transform="translate(226,213)"/>
<path d="M0 0 C1.98 0 3.96 0 6 0 C6 0.66 6 1.32 6 2 C4.35 2.33 2.7 2.66 1 3 C0.67 4.32 0.34 5.64 0 7 C0 4.69 0 2.38 0 0 Z " fill="#FAEA9B" transform="translate(235,159)"/>
<path d="M0 0 C0.99 0 1.98 0 3 0 C3 2.97 3 5.94 3 9 C2.34 7.68 1.68 6.36 1 5 C0.34 4.67 -0.32 4.34 -1 4 C-0.67 2.68 -0.34 1.36 0 0 Z " fill="#E4C56E" transform="translate(163,154)"/>
<path d="M0 0 C0.99 0 1.98 0 3 0 C2.67 0.99 2.34 1.98 2 3 C1.34 3 0.68 3 0 3 C0 4.98 0 6.96 0 9 C-0.66 9 -1.32 9 -2 9 C-1.125 2.25 -1.125 2.25 0 0 Z " fill="#09090B" transform="translate(133,136)"/>
<path d="M0 0 C0.99 0 1.98 0 3 0 C2.67 0.99 2.34 1.98 2 3 C1.34 3 0.68 3 0 3 C-0.33 5.97 -0.66 8.94 -1 12 C-1.33 12 -1.66 12 -2 12 C-2.28571429 3.42857143 -2.28571429 3.42857143 0 0 Z " fill="#060608" transform="translate(65,136)"/>
<path d="M0 0 C3.63 0 7.26 0 11 0 C10.01 1.485 10.01 1.485 9 3 C6.625 3.375 6.625 3.375 4 3 C2.68 2.01 1.36 1.02 0 0 Z " fill="#BE8935" transform="translate(57,116)"/>
<path d="M0 0 C1.65 1.32 3.3 2.64 5 4 C4.34 6.31 3.68 8.62 3 11 C2.67 11 2.34 11 2 11 C1.34 7.37 0.68 3.74 0 0 Z " fill="#281F17" transform="translate(104,136)"/>
<path d="M0 0 C3.36591866 1.44253657 5.51047079 3.33264727 8 6 C7.67 6.66 7.34 7.32 7 8 C5.8274869 7.04882866 4.66212985 6.08882991 3.5 5.125 C2.8503125 4.59132813 2.200625 4.05765625 1.53125 3.5078125 C1.0259375 3.01023437 0.520625 2.51265625 0 2 C0 1.34 0 0.68 0 0 Z " fill="#DAC38D" transform="translate(212,121)"/>
<path d="M0 0 C0.33 0.99 0.66 1.98 1 3 C0.34 3 -0.32 3 -1 3 C-1 3.66 -1 4.32 -1 5 C-1.99 5 -2.98 5 -4 5 C-4 3.68 -4 2.36 -4 1 C-2.68 0.67 -1.36 0.34 0 0 Z " fill="#D0932C" transform="translate(143,69)"/>
<path d="M0 0 C2.475 0.495 2.475 0.495 5 1 C5 1.99 5 2.98 5 4 C5.66 4 6.32 4 7 4 C6.67 4.66 6.34 5.32 6 6 C3.97945196 4.35830472 1.97956942 2.69088222 0 1 C0 0.67 0 0.34 0 0 Z " fill="#A97B33" transform="translate(123,67)"/>
</svg>
