<?xml version="1.0" encoding="UTF-8"?>
<svg version="1.1" xmlns="http://www.w3.org/2000/svg" width="500" height="500">
<path d="M0 0 C165 0 330 0 500 0 C500 165 500 330 500 500 C335 500 170 500 0 500 C0 335 0 170 0 0 Z " fill="#262E3B" transform="translate(0,0)"/>
<path d="M0 0 C4.71914417 0.20518018 7.60364799 1.19058776 11.59375 3.7421875 C16.77076159 6.93001187 22.0778829 9.52472142 27.625 12 C28.58647949 12.43151367 29.54795898 12.86302734 30.53857422 13.30761719 C45.03606698 19.74826303 59.75274581 24.65259308 75 29 C75.77182617 29.22574707 76.54365234 29.45149414 77.33886719 29.68408203 C87.02630897 32.50560655 96.72837061 34.61908077 106.6875 36.25 C107.67194092 36.41322754 108.65638184 36.57645508 109.6706543 36.74462891 C124.36541958 39.01615489 139.12655089 39.18657672 153.9621582 39.18530273 C156.79849272 39.1874892 159.63443683 39.20572872 162.47070312 39.22460938 C178.84436354 39.27629212 194.79951456 37.94565094 210.875 34.75 C211.96941406 34.53529053 213.06382812 34.32058105 214.19140625 34.09936523 C224.64259642 31.98196746 234.83540168 29.20827716 245 26 C245.82564453 25.74041504 246.65128906 25.48083008 247.50195312 25.21337891 C255.29957301 22.73942909 262.8944999 20.17464711 270.3046875 16.6875 C272.64602013 15.73801949 274.51940672 15.54898304 277 16 C279 18 279 18 279.34375 20.421875 C279 23 279 23 277.59375 24.703125 C255.58233219 40.96529189 229.46168329 51.51431174 202.875 57.3125 C201.76858154 57.55500488 200.66216309 57.79750977 199.5222168 58.04736328 C183.60217016 61.33811867 167.89448014 62.33321635 151.66723633 62.26074219 C148.80463693 62.24997041 145.94265934 62.26073771 143.08007812 62.2734375 C126.97420351 62.28907132 112.1841425 60.40451223 96.5625 56.25 C95.54494629 55.98239365 95.54494629 55.98239365 94.50683594 55.7093811 C84.43121869 53.05117913 74.53466606 50.27500565 65 46 C64.13503906 45.61473145 63.27007812 45.22946289 62.37890625 44.83251953 C40.97158991 35.18543006 15.43014324 22.39747848 0 4 C0 2.68 0 1.36 0 0 Z " fill="#F5981C" transform="translate(101,284)"/>
<path d="M0 0 C2.62527189 -0.05382106 5.24944713 -0.09358313 7.875 -0.125 C8.62136719 -0.14175781 9.36773437 -0.15851563 10.13671875 -0.17578125 C12.09194461 -0.1933959 14.04742021 -0.10320189 16 0 C18.58144802 2.58144802 18.82078033 4.56030133 19.69580078 8.10205078 C19.85214996 8.72657135 20.00849915 9.35109192 20.16958618 9.99453735 C20.68487149 12.05985967 21.19010995 14.12750285 21.6953125 16.1953125 C22.05056255 17.62750265 22.40643617 19.05953826 22.76290894 20.49142456 C23.69962283 24.26119282 24.62783844 28.03300407 25.55432129 31.80529785 C26.50115907 35.65401623 27.45598935 39.50074965 28.41015625 43.34765625 C30.28128155 50.89651368 32.14343665 58.44754645 34 66 C34.66 66 35.32 66 36 66 C39.43767203 52.53988235 42.84935111 39.08767013 45.75 25.5 C45.95109375 24.55858154 46.1521875 23.61716309 46.359375 22.6472168 C46.55144531 21.747854 46.74351562 20.84849121 46.94140625 19.921875 C50.3505 3.97425 50.3505 3.97425 53 0 C55.74732986 -0.35873731 58.19009734 -0.50966544 60.9375 -0.5 C61.66646484 -0.52835938 62.39542969 -0.55671875 63.14648438 -0.5859375 C65.27734375 -0.59375 65.27734375 -0.59375 69 0 C72.30453142 4.11098537 73.16812581 8.94240202 74.3046875 13.97265625 C74.51054474 14.85038193 74.71640198 15.7281076 74.92849731 16.63243103 C75.5854611 19.44063375 76.23064888 22.25137926 76.875 25.0625 C77.51203311 27.80815646 78.15154738 30.5532251 78.79156494 33.29818726 C79.21614992 35.11927304 79.63977847 36.94058208 80.06243896 38.76211548 C82.260817 48.20340732 84.61796406 57.60362573 87 67 C87.66 67 88.32 67 89 67 C89.15557373 66.33693848 89.31114746 65.67387695 89.47143555 64.99072266 C92.18950245 53.44218007 94.91085375 41.90735989 98.17016602 30.49780273 C99.27529584 26.62695998 100.32994755 22.75066468 101.31640625 18.84765625 C101.53546631 17.98640137 101.75452637 17.12514648 101.98022461 16.23779297 C102.39780478 14.58612979 102.80918211 12.93288088 103.21313477 11.27783203 C105.3537845 2.85497877 105.3537845 2.85497877 108 0 C110.78599571 -0.38060051 112.93372751 -0.47962905 115.6875 -0.3125 C116.38939453 -0.28994141 117.09128906 -0.26738281 117.81445312 -0.24414062 C119.5438833 -0.18531647 121.27221438 -0.09563389 123 0 C122.56856074 8.05353291 120.18701692 15.28842136 117.68945312 22.88720703 C116.59283702 26.24772961 115.54818614 29.62412632 114.5 33 C114.08360235 34.33341737 113.66693517 35.6667506 113.25 37 C112.940625 37.99 112.940625 37.99 112.625 39 C110.75 45 110.75 45 110.12475586 47.00073242 C109.70886591 48.33161276 109.29301294 49.66250465 108.87719727 50.9934082 C107.82395253 54.36436894 106.77002928 57.73511498 105.71484375 61.10546875 C105.50327637 61.7819043 105.29170898 62.45833984 105.07373047 63.15527344 C104.65315048 64.4986763 104.23161739 65.84178118 103.80908203 67.18457031 C102.81014808 70.36694487 101.83854796 73.55215448 100.90234375 76.75390625 C100.56332031 77.90761719 100.22429687 79.06132812 99.875 80.25 C99.58367187 81.26578125 99.29234375 82.2815625 98.9921875 83.328125 C97.24268447 88.03938512 97.24268447 88.03938512 95 90 C92.12961948 90.29561076 89.66245255 90.37943016 86.8125 90.25 C86.06291016 90.23195313 85.31332031 90.21390625 84.54101562 90.1953125 C82.6934629 90.14824109 80.84656841 90.07649766 79 90 C76.25184541 85.08017152 74.95775487 80.37893522 73.75 74.9375 C73.32242375 73.07793876 72.89398695 71.21857525 72.46484375 69.359375 C72.23394043 68.35068359 72.00303711 67.34199219 71.76513672 66.30273438 C70.3251767 60.08710607 68.81410204 53.8884588 67.3125 47.6875 C66.86632324 45.83789673 66.86632324 45.83789673 66.41113281 43.95092773 C66.1272168 42.77473877 65.84330078 41.5985498 65.55078125 40.38671875 C65.28330078 39.2786084 65.01582031 38.17049805 64.74023438 37.02880859 C64.11193968 34.45802233 63.46169977 31.89455015 62.80078125 29.33203125 C62.09426408 26.39223055 61.81237526 24.00199576 62 21 C61.34 21 60.68 21 60 21 C59.81630859 22.70736328 59.81630859 22.70736328 59.62890625 24.44921875 C59.05662432 28.99861129 58.04597249 33.36783945 56.9375 37.8125 C55.21050118 44.851826 53.56389135 51.90422524 51.99609375 58.98046875 C51.64280824 60.56473044 51.2893732 62.14895879 50.93579102 63.7331543 C50.40575358 66.10823073 49.87854155 68.48374275 49.36056519 70.86148071 C48.87081909 73.10743935 48.37002573 75.35069167 47.8671875 77.59375 C47.72353256 78.26693771 47.57987762 78.94012543 47.43186951 79.63371277 C46.53920773 83.56031934 45.48471988 86.7995605 43 90 C40.09451024 90.52323438 37.89253553 90.70220291 35 90.625 C34.27554688 90.64433594 33.55109375 90.66367187 32.8046875 90.68359375 C30.6875 90.6640625 30.6875 90.6640625 27 90 C20.18741532 82.16911319 18.16107097 67.22755696 15.37182617 57.32641602 C13.49337369 50.67175248 11.52282972 44.04963507 9.5 37.4375 C9.2100415 36.48625244 8.92008301 35.53500488 8.62133789 34.55493164 C7.17071249 29.80246432 5.70588403 25.05489329 4.22265625 20.3125 C3.66917597 18.52086264 3.11578648 16.72919722 2.5625 14.9375 C2.30339844 14.12273193 2.04429687 13.30796387 1.77734375 12.46850586 C0.4601433 8.17720069 -0.29825591 4.54658406 0 0 Z " fill="#FBFBFB" transform="translate(197,166)"/>
<path d="M0 0 C2.12284881 1.90373921 3.53134439 3.52190658 4.99609375 5.9453125 C5.39183594 6.58210937 5.78757812 7.21890625 6.1953125 7.875 C9.51523815 14.4216604 9.58882266 20.30039082 9.58203125 27.49609375 C9.60232215 29.75977055 9.62317297 32.02344239 9.64453125 34.28710938 C9.66710117 37.83524781 9.68359437 41.38318961 9.68945312 44.93139648 C9.69901472 48.36998539 9.73283677 51.80770188 9.76953125 55.24609375 C9.76196304 56.82152702 9.76196304 56.82152702 9.75424194 58.42878723 C9.83392904 64.44298511 10.63535698 68.89616682 13.4281311 74.25480652 C14.30859375 76.0703125 14.30859375 76.0703125 14.55859375 78.7578125 C12.50800832 82.55139555 9.19642602 85.23668948 5.30859375 87.0703125 C2.75 87.01171875 2.75 87.01171875 0.30859375 86.0703125 C-1.4921875 84.07421875 -1.4921875 84.07421875 -3.00390625 81.6328125 C-3.51566406 80.82972656 -4.02742188 80.02664062 -4.5546875 79.19921875 C-5.69140625 77.0703125 -5.69140625 77.0703125 -5.69140625 75.0703125 C-6.35140625 75.0703125 -7.01140625 75.0703125 -7.69140625 75.0703125 C-7.91828125 75.65683594 -8.14515625 76.24335938 -8.37890625 76.84765625 C-11.71972981 82.50518186 -19.51885675 85.92586923 -25.56640625 88.0078125 C-33.99581099 90.1520172 -42.86580448 90.43682095 -50.6953125 86.328125 C-57.67944906 81.92716224 -61.8550111 77.13411395 -64.2734375 69.1484375 C-65.91887573 60.96738012 -64.88051556 53.2903656 -60.69140625 46.0703125 C-55.3708678 39.19575539 -48.27048596 34.71127741 -39.69140625 33.0703125 C-36.08290691 32.79122377 -32.49658449 32.79072004 -28.87890625 32.8203125 C-27.94498047 32.81257813 -27.01105469 32.80484375 -26.04882812 32.796875 C-19.71363063 32.81446056 -13.85048657 33.59863676 -7.69140625 35.0703125 C-7.5383664 22.76152728 -7.5383664 22.76152728 -12.69140625 12.0703125 C-19.56596393 6.91439424 -28.44366812 7.11598226 -36.69140625 8.0703125 C-42.17167293 9.2642147 -47.41374485 11.20075765 -52.69140625 13.0703125 C-55.0234375 13.85546875 -55.0234375 13.85546875 -56.69140625 14.0703125 C-59.08427509 11.67744366 -59.01191241 10.97584156 -59.06640625 7.6953125 C-58.98128256 4.57077239 -58.87834023 3.35445214 -57.12890625 0.6953125 C-41.61190181 -9.64935713 -15.39246491 -11.03610692 0 0 Z " fill="#FAFAFA" transform="translate(177.69140625,169.9296875)"/>
<path d="M0 0 C0 3.96 0 7.92 0 12 C-4.35834901 11.48725306 -7.95893419 10.65787315 -12 9 C-16.66414276 8.03832108 -21.25176255 7.78570103 -26 7.75 C-26.68578125 7.729375 -27.3715625 7.70875 -28.078125 7.6875 C-33.68073246 7.644732 -37.75509385 8.90475426 -41.875 12.75 C-43.52016849 16.04033698 -43.44565624 18.37108493 -43 22 C-39.4385127 28.96108881 -30.4735945 30.53426238 -23.52734375 32.859375 C-2.27450642 39.98542536 -2.27450642 39.98542536 3.67578125 49.75 C5.21350664 53.5240045 5.53659643 56.85747202 5.5 60.875 C5.49572998 61.58245361 5.49145996 62.28990723 5.48706055 63.01879883 C5.29277965 68.97422904 3.97799713 72.65531598 0 77 C-0.680625 77.86625 -1.36125 78.7325 -2.0625 79.625 C-13.27195938 88.68796716 -26.02414967 90.1721882 -40 89 C-48.31213299 87.80491188 -56.03699267 86.23529077 -62 80 C-62.62109375 77.359375 -62.62109375 77.359375 -62.4375 74.75 C-62.39496094 73.87859375 -62.35242188 73.0071875 -62.30859375 72.109375 C-62 70 -62 70 -61 69 C-56.49873009 68.29667658 -53.29968962 70.07045903 -49.37890625 72.02734375 C-41.08498425 75.41845471 -27.74765075 75.62589911 -19.1875 72.875 C-15.42819646 70.66364498 -13.85476869 68.94138347 -12 65 C-11.40262198 61.34105961 -11.56793811 59.70885153 -13.5 56.5390625 C-16.8055704 53.18184256 -20.11830025 51.99474175 -24.5 50.4375 C-25.30228027 50.137229 -26.10456055 49.83695801 -26.93115234 49.52758789 C-31.45542816 47.85127523 -36.01206219 46.35323539 -40.625 44.9375 C-48.51893115 42.34253368 -54.51439355 37.87536285 -58.9296875 30.7578125 C-61.55372377 23.99660957 -61.41358551 15.27249659 -58.5625 8.5625 C-53.53095364 0.543473 -46.58716286 -3.99855532 -37.53125 -6.37890625 C-23.91741719 -8.77337463 -11.99555189 -6.56360387 0 0 Z " fill="#FAFAFA" transform="translate(389,170)"/>
<path d="M0 0 C1.5768457 -0.0309375 1.5768457 -0.0309375 3.18554688 -0.0625 C9.72006546 -0.09503027 15.31990939 0.51656904 21.3125 3.25 C23.5495456 5.4870456 22.62396901 10.03785869 22.62719727 13.05053711 C22.3220794 28.47794634 14.60960068 43.30364721 4.42578125 54.5546875 C2.3125 56.25 2.3125 56.25 -1.6875 56.25 C-1.10387842 50.30985162 0.64800803 45.25081124 2.75 39.6875 C5.73493229 31.53375917 7.60745965 23.94070151 8.3125 15.25 C-0.46278006 12.69096311 -9.20407817 13.02568693 -18.25 13.125 C-19.8469996 13.13504912 -21.44400532 13.14417156 -23.04101562 13.15234375 C-26.92333006 13.17420609 -30.80534644 13.2086294 -34.6875 13.25 C-33.87451172 9.42236328 -33.87451172 9.42236328 -32.19140625 7.87109375 C-26.9011327 4.64583643 -21.6840417 2.75933363 -15.6875 1.25 C-15.08993896 1.07726562 -14.49237793 0.90453125 -13.87670898 0.7265625 C-9.33844726 -0.26135842 -4.62535941 0.02227747 0 0 Z " fill="#F3981C" transform="translate(384.6875,277.75)"/>
<path d="M0 0 C1.32257813 -0.01836914 1.32257813 -0.01836914 2.671875 -0.03710938 C7.93338615 -0.04885382 12.27189132 0.46692418 17.25 2.1875 C18.17120602 15.61663669 18.17120602 15.61663669 13.6640625 21.609375 C8.75383602 27.08929627 3.30668559 29.73124685 -3.9453125 30.546875 C-13.65934362 30.9451724 -13.65934362 30.9451724 -17.4375 27.9375 C-21.48559352 23.12355095 -22.15064815 19.78629633 -21.99609375 13.5859375 C-21.51138641 8.86196439 -19.16885316 6.43962728 -15.75 3.4375 C-10.6058121 -0.42064093 -6.16279851 0.0044273 0 0 Z " fill="#272E3B" transform="translate(152.75,214.8125)"/>
<path d="M0 0 C0.66 0 1.32 0 2 0 C2.33 2.64 2.66 5.28 3 8 C2.01 8.33 1.02 8.66 0 9 C-0.84454356 5.62182575 -1.10844919 3.32534757 0 0 Z " fill="#333B46" transform="translate(257,187)"/>
<path d="M0 0 C3.375 -0.125 3.375 -0.125 7 0 C7.66 0.66 8.32 1.32 9 2 C5.62182575 2.84454356 3.32534757 3.10844919 0 2 C0 1.34 0 0.68 0 0 Z " fill="#403A35" transform="translate(191,316)"/>
</svg>
